<svg xmlns="http://www.w3.org/2000/svg" viewBox="0 0 100 9.968658498043377" xmlns:xlink="http://www.w3.org/1999/xlink" version="1.1"  ><g transform="translate(13.200732294356351 4.984329249021688) scale(0.04984329249021688)" id="horizontalContainerlessSvgTemplate"><g fill="#000000"><g transform="translate(-5.360824742268041 58.144329896907216) scale(2.863688430698739)" fill="#000000"><g id="line1" fill="#000000"><path d="M1.872-1.296L2.376 0L17.640 0C22.728 0 26.748-1.512 29.700-4.536C32.652-7.560 34.128-11.640 34.128-16.776C34.128-22.440 32.532-26.772 29.340-29.772C26.148-32.772 21.504-34.272 15.408-34.272C13.440-34.272 11.280-34.116 8.928-33.804C6.576-33.492 4.608-33.096 3.024-32.616L2.736-31.680L3.600-31.176C4.560-30.600 5.172-29.928 5.436-29.160C5.700-28.392 5.832-27.168 5.832-25.488L5.832-5.976C5.832-4.872 5.736-4.056 5.544-3.528C5.352-3.000 4.992-2.580 4.464-2.268C3.936-1.956 3.072-1.632 1.872-1.296ZM26.712-16.776C26.712-6.552 23.472-1.440 16.992-1.440C15.552-1.440 14.484-1.992 13.788-3.096C13.092-4.200 12.744-5.880 12.744-8.136L12.744-30.168C12.744-30.888 13.080-31.440 13.752-31.824C14.424-32.208 15.384-32.400 16.632-32.400C19.656-32.400 22.092-30.972 23.940-28.116C25.788-25.260 26.712-21.480 26.712-16.776Z"></path><path d="M89.856-5.256C89.712-6.120 89.640-7.392 89.640-9.072L89.640-26.496C89.640-28.272 89.844-29.508 90.252-30.204C90.660-30.900 91.560-31.656 92.952-32.472L92.376-33.624L80.136-33.624L79.560-32.688C80.952-31.536 81.828-30.492 82.188-29.556C82.548-28.620 82.728-27.000 82.728-24.696L82.728-18.072L69.984-18.072L69.984-26.496C69.984-28.272 70.176-29.508 70.560-30.204C70.944-30.900 71.832-31.656 73.224-32.472L72.720-33.624L60.480-33.624L59.904-32.688C61.296-31.536 62.172-30.492 62.532-29.556C62.892-28.620 63.072-27.000 63.072-24.696L63.072-5.976C63.072-4.392 62.856-3.324 62.424-2.772C61.992-2.220 60.984-1.728 59.400-1.296L59.832 0L72.504 0L73.008-0.864C72.096-1.680 71.436-2.388 71.028-2.988C70.620-3.588 70.344-4.332 70.200-5.220C70.056-6.108 69.984-7.392 69.984-9.072L69.984-16.056L82.728-16.056L82.728-5.976C82.728-4.872 82.644-4.044 82.476-3.492C82.308-2.940 81.972-2.508 81.468-2.196C80.964-1.884 80.160-1.584 79.056-1.296L79.488 0L92.160 0L92.736-0.864C91.824-1.680 91.152-2.400 90.720-3.024C90.288-3.648 90.000-4.392 89.856-5.256Z"></path><path d="M148.032-3.276C147.456-4.068 146.928-5.136 146.448-6.480L137.016-33.624L127.224-33.624L126.720-32.328L127.512-32.112C129.048-31.680 129.816-30.936 129.816-29.880C129.816-29.400 129.648-28.560 129.312-27.360L121.968-6.192C121.440-4.656 120.888-3.588 120.312-2.988C119.736-2.388 118.872-1.920 117.720-1.584L116.640-1.296L117.144 0L125.064 0L125.712-0.720L125.208-1.584C124.824-2.448 124.632-3.408 124.632-4.464C124.632-5.568 124.992-7.200 125.712-9.360L126.288-11.160L137.448-11.160L138.888-6.912C139.416-5.328 139.680-4.344 139.680-3.960C139.680-3.336 139.524-2.844 139.212-2.484C138.900-2.124 138.384-1.824 137.664-1.584L136.584-1.296L137.016 0L150.048 0L150.696-0.720C149.496-1.632 148.608-2.484 148.032-3.276ZM136.728-13.176L127.008-13.176L131.832-27.792Z"></path><path d="M205.704-2.448L205.128-3.240C204.216-2.472 203.328-2.088 202.464-2.088C201.360-2.088 200.616-2.664 200.232-3.816L197.712-10.872C197.040-12.696 195.840-13.992 194.112-14.760C196.320-15.336 198.132-16.476 199.548-18.180C200.964-19.884 201.672-21.840 201.672-24.048C201.672-27.216 200.352-29.712 197.712-31.536C195.072-33.360 191.472-34.272 186.912-34.272C185.088-34.272 183.012-34.116 180.684-33.804C178.356-33.492 176.448-33.096 174.960-32.616L174.672-31.680L175.536-31.176C176.496-30.600 177.108-29.868 177.372-28.980C177.636-28.092 177.768-26.808 177.768-25.128L177.768-5.976C177.768-4.872 177.672-4.056 177.480-3.528C177.288-3.000 176.928-2.580 176.400-2.268C175.872-1.956 175.008-1.632 173.808-1.296L174.312 0L186.840 0L187.416-0.720L186.840-1.584C186.024-2.688 185.460-3.804 185.148-4.932C184.836-6.060 184.680-7.560 184.680-9.432L184.680-29.520C184.680-31.536 185.760-32.544 187.920-32.544C189.888-32.544 191.472-31.788 192.672-30.276C193.872-28.764 194.472-26.736 194.472-24.192C194.472-22.080 193.968-20.352 192.960-19.008C191.952-17.664 190.560-16.848 188.784-16.560C188.544-16.512 188.136-16.488 187.560-16.488C186.936-16.488 186.432-16.512 186.048-16.560L185.904-15.840L187.128-15.192C187.944-14.856 188.544-14.388 188.928-13.788C189.312-13.188 189.744-12.240 190.224-10.944L192.312-4.608C193.032-2.688 193.884-1.332 194.868-0.540C195.852 0.252 197.208 0.648 198.936 0.648C201.720 0.648 203.976-0.384 205.704-2.448Z"></path><path d="M265.680-4.248C265.200-5.544 264.912-7.152 264.816-9.072L263.880-21.888C263.688-23.808 263.592-25.224 263.592-26.136C263.592-27.528 263.748-28.656 264.060-29.520C264.372-30.384 264.984-31.488 265.896-32.832L265.176-33.624L255.888-33.624L248.040-11.232L240.624-33.624L230.112-33.624L229.608-32.688C230.856-31.488 231.660-30.504 232.020-29.736C232.380-28.968 232.560-27.768 232.560-26.136C232.560-25.128 232.440-23.016 232.200-19.800L231.336-5.976C231.240-4.872 231.084-4.056 230.868-3.528C230.652-3.000 230.268-2.592 229.716-2.304C229.164-2.016 228.264-1.680 227.016-1.296L227.448 0L235.440 0L236.088-0.720C235.224-1.968 234.636-3.060 234.324-3.996C234.012-4.932 233.856-6.024 233.856-7.272C233.856-8.184 233.952-9.792 234.144-12.096L235.152-28.512L244.800-1.080L246.816-1.080L256.536-28.728L256.968-22.464C257.736-11.424 258.120-5.592 258.120-4.968C258.120-3.816 257.892-3.024 257.436-2.592C256.980-2.160 255.960-1.728 254.376-1.296L254.880 0L267.408 0L267.984-0.720C266.928-1.776 266.160-2.952 265.680-4.248Z"></path><path d="M322.128-3.276C321.552-4.068 321.024-5.136 320.544-6.480L311.112-33.624L301.320-33.624L300.816-32.328L301.608-32.112C303.144-31.680 303.912-30.936 303.912-29.880C303.912-29.400 303.744-28.560 303.408-27.360L296.064-6.192C295.536-4.656 294.984-3.588 294.408-2.988C293.832-2.388 292.968-1.920 291.816-1.584L290.736-1.296L291.240 0L299.160 0L299.808-0.720L299.304-1.584C298.920-2.448 298.728-3.408 298.728-4.464C298.728-5.568 299.088-7.200 299.808-9.360L300.384-11.160L311.544-11.160L312.984-6.912C313.512-5.328 313.776-4.344 313.776-3.960C313.776-3.336 313.620-2.844 313.308-2.484C312.996-2.124 312.480-1.824 311.760-1.584L310.680-1.296L311.112 0L324.144 0L324.792-0.720C323.592-1.632 322.704-2.484 322.128-3.276ZM310.824-13.176L301.104-13.176L305.928-27.792Z"></path><path d="M397.224-32.832L396.648-33.624L387.936-33.624L387.504-32.328L388.800-31.824C389.520-31.632 390.036-31.356 390.348-30.996C390.660-30.636 390.816-30.168 390.816-29.592C390.816-29.064 390.648-28.272 390.312-27.216L383.184-5.832L376.848-27.360C376.512-28.416 376.344-29.184 376.344-29.664C376.344-30.336 376.488-30.852 376.776-31.212C377.064-31.572 377.592-31.848 378.360-32.040L379.440-32.328L378.936-33.624L365.832-33.624L365.256-32.832C366.456-31.872 367.332-31.020 367.884-30.276C368.436-29.532 368.952-28.488 369.432-27.144L370.224-24.624L364.680-5.904L357.480-27.360C357.144-28.416 356.976-29.184 356.976-29.664C356.976-30.288 357.132-30.780 357.444-31.140C357.756-31.500 358.272-31.800 358.992-32.040L360.000-32.328L359.568-33.624L346.464-33.624L345.888-32.832C347.088-31.872 347.964-31.020 348.516-30.276C349.068-29.532 349.584-28.488 350.064-27.144L359.280 0L365.544 0L371.592-20.232L377.712 0L383.904 0L392.976-27.144C393.456-28.440 393.984-29.484 394.560-30.276C395.136-31.068 396.024-31.920 397.224-32.832Z"></path><path d="M424.368-4.032C427.296-0.912 431.256 0.648 436.248 0.648C441.240 0.648 445.212-0.924 448.164-4.068C451.116-7.212 452.592-11.448 452.592-16.776C452.592-22.152 451.116-26.412 448.164-29.556C445.212-32.700 441.240-34.272 436.248-34.272C431.256-34.272 427.296-32.700 424.368-29.556C421.440-26.412 419.976-22.152 419.976-16.776C419.976-11.400 421.440-7.152 424.368-4.032ZM440.748-2.988C439.380-1.668 437.808-1.008 436.032-1.008C433.344-1.008 431.208-2.412 429.624-5.220C428.040-8.028 427.248-11.760 427.248-16.416C427.248-19.584 427.632-22.404 428.400-24.876C429.168-27.348 430.248-29.268 431.640-30.636C433.032-32.004 434.616-32.688 436.392-32.688C438.072-32.688 439.572-32.004 440.892-30.636C442.212-29.268 443.244-27.360 443.988-24.912C444.732-22.464 445.104-19.704 445.104-16.632C445.104-13.560 444.720-10.848 443.952-8.496C443.184-6.144 442.116-4.308 440.748-2.988Z"></path><path d="M509.040-2.448L508.464-3.240C507.552-2.472 506.664-2.088 505.800-2.088C504.696-2.088 503.952-2.664 503.568-3.816L501.048-10.872C500.376-12.696 499.176-13.992 497.448-14.760C499.656-15.336 501.468-16.476 502.884-18.180C504.300-19.884 505.008-21.840 505.008-24.048C505.008-27.216 503.688-29.712 501.048-31.536C498.408-33.360 494.808-34.272 490.248-34.272C488.424-34.272 486.348-34.116 484.020-33.804C481.692-33.492 479.784-33.096 478.296-32.616L478.008-31.680L478.872-31.176C479.832-30.600 480.444-29.868 480.708-28.980C480.972-28.092 481.104-26.808 481.104-25.128L481.104-5.976C481.104-4.872 481.008-4.056 480.816-3.528C480.624-3.000 480.264-2.580 479.736-2.268C479.208-1.956 478.344-1.632 477.144-1.296L477.648 0L490.176 0L490.752-0.720L490.176-1.584C489.360-2.688 488.796-3.804 488.484-4.932C488.172-6.060 488.016-7.560 488.016-9.432L488.016-29.520C488.016-31.536 489.096-32.544 491.256-32.544C493.224-32.544 494.808-31.788 496.008-30.276C497.208-28.764 497.808-26.736 497.808-24.192C497.808-22.080 497.304-20.352 496.296-19.008C495.288-17.664 493.896-16.848 492.120-16.560C491.880-16.512 491.472-16.488 490.896-16.488C490.272-16.488 489.768-16.512 489.384-16.560L489.240-15.840L490.464-15.192C491.280-14.856 491.880-14.388 492.264-13.788C492.648-13.188 493.080-12.240 493.560-10.944L495.648-4.608C496.368-2.688 497.220-1.332 498.204-0.540C499.188 0.252 500.544 0.648 502.272 0.648C505.056 0.648 507.312-0.384 509.040-2.448Z"></path><path d="M563.400-2.448L562.824-3.240C561.816-2.472 560.928-2.088 560.160-2.088C559.632-2.088 559.200-2.220 558.864-2.484C558.528-2.748 558.240-3.192 558.000-3.816L554.688-12.168C554.016-13.800 552.960-15.036 551.520-15.876C550.080-16.716 548.112-17.232 545.616-17.424L555.696-28.944C556.896-30.288 558.168-31.248 559.512-31.824L561.168-32.328L560.736-33.624L552.240-33.624L551.304-32.832L551.736-32.040C552.120-31.080 552.312-30.432 552.312-30.096C552.264-29.568 552.156-29.100 551.988-28.692C551.820-28.284 551.520-27.816 551.088-27.288L542.520-17.568L542.304-17.568L542.304-26.496C542.304-28.224 542.520-29.448 542.952-30.168C543.384-30.888 544.368-31.656 545.904-32.472L545.400-33.624L532.872-33.624L532.296-32.688C533.640-31.536 534.492-30.492 534.852-29.556C535.212-28.620 535.392-27.000 535.392-24.696L535.392-5.976C535.392-4.872 535.296-4.056 535.104-3.528C534.912-3.000 534.552-2.580 534.024-2.268C533.496-1.956 532.632-1.632 531.432-1.296L531.936 0L544.896 0L545.400-0.864C544.056-2.064 543.204-3.132 542.844-4.068C542.484-5.004 542.304-6.576 542.304-8.784L542.304-16.560C543.504-16.560 544.368-16.260 544.896-15.660C545.424-15.060 545.976-14.112 546.552-12.816L549.288-5.760C550.200-3.360 551.160-1.692 552.168-0.756C553.176 0.180 554.616 0.648 556.488 0.648C557.832 0.648 559.056 0.408 560.160-0.072C561.264-0.552 562.344-1.344 563.400-2.448Z"></path><path d="M595.080-23.364C593.736-24.588 593.064-26.160 593.064-28.080C593.064-29.328 593.508-30.384 594.396-31.248C595.284-32.112 596.544-32.544 598.176-32.544C599.856-32.544 601.128-32.124 601.992-31.284C602.856-30.444 603.288-29.424 603.288-28.224C603.288-27.456 603.120-26.712 602.784-25.992C602.448-25.272 601.968-24.672 601.344-24.192C602.496-23.664 603.600-23.400 604.656-23.400C606.144-23.400 607.320-23.772 608.184-24.516C609.048-25.260 609.480-26.280 609.480-27.576C609.480-29.592 608.472-31.212 606.456-32.436C604.440-33.660 601.824-34.272 598.608-34.272C594.864-34.272 591.828-33.420 589.500-31.716C587.172-30.012 586.008-27.792 586.008-25.056C586.008-23.232 586.440-21.648 587.304-20.304C588.168-18.960 589.236-17.832 590.508-16.920C591.780-16.008 593.400-15.024 595.368-13.968C597.864-12.528 599.724-11.268 600.948-10.188C602.172-9.108 602.784-7.728 602.784-6.048C602.784-4.608 602.292-3.408 601.308-2.448C600.324-1.488 598.968-1.008 597.240-1.008C595.560-1.008 594.228-1.476 593.244-2.412C592.260-3.348 591.768-4.488 591.768-5.832C591.768-8.088 592.512-9.600 594.000-10.368C592.944-10.944 591.840-11.232 590.688-11.232C589.200-11.232 587.964-10.812 586.980-9.972C585.996-9.132 585.504-7.992 585.504-6.552C585.504-4.344 586.548-2.592 588.636-1.296C590.724 0 593.472 0.648 596.880 0.648C600.864 0.648 604.044-0.204 606.420-1.908C608.796-3.612 609.984-5.952 609.984-8.928C609.984-10.560 609.576-12.000 608.760-13.248C607.944-14.496 606.960-15.528 605.808-16.344C604.656-17.160 603.096-18.120 601.128-19.224C598.440-20.760 596.424-22.140 595.080-23.364Z"></path></g></g><g transform="translate(-327.4136681351616 -146.2548674915701) scale(2.924053188534639)" id="logomark"><g fill="#000000"><path d="M70.332 50l8.136-14.09a1 1 0 0 0-.866-1.5h-16.27L50.866 16.283c-.357-.619-1.375-.619-1.732 0L38.668 34.41h-16.27a1 1 0 0 0-.866 1.5L29.667 50l-8.135 14.09a1 1 0 0 0 .866 1.5h16.27l10.466 18.127a1 1 0 0 0 1.732 0L61.331 65.59h16.27a1 1 0 0 0 .867-1.5L70.332 50zm-4.978-8.623l9.939-3.968-6.115 10.59-3.824-6.622zM50 45.353l-8.337-3.329h16.673L50 45.353zm-1 1.754v13.67L38.743 43.013 49 47.107zm2 0l10.257-4.095L51 60.778v-13.67zM72.4 36.41l-8.057 3.216-1.857-3.216H72.4zM50 18.783l12.263 21.241H37.737L50 18.784zM35.657 39.626L27.6 36.41h9.912l-1.856 3.216zm-10.95-2.217l9.94 3.968L30.821 48l-6.115-10.591zm11.515 5.238l12.092 20.944H24.131l12.091-20.944zM49 65.591v13.894L40.978 65.59H49zm2 13.894V65.59h8.022L51 79.485zm.686-15.894l12.092-20.944 12.091 20.944H51.686z" fill="#000000"></path></g></g></g></g></svg>