<?xml version="1.0" encoding="UTF-8"?>
<svg width="1141px" height="293px" viewBox="0 0 1141 293" version="1.1" xmlns="http://www.w3.org/2000/svg" xmlns:xlink="http://www.w3.org/1999/xlink">
    <!-- Generator: Sketch 44.1 (41455) - http://www.bohemiancoding.com/sketch -->
    <title>logo-black</title>
    <desc>Created with Sketch.</desc>
    <defs>
        <filter x="-10.5%" y="-7.4%" width="121.1%" height="118.6%" filterUnits="objectBoundingBox" id="filter-1">
            <feOffset dx="0" dy="5" in="SourceAlpha" result="shadowOffsetOuter1"></feOffset>
            <feGaussianBlur stdDeviation="5" in="shadowOffsetOuter1" result="shadowBlurOuter1"></feGaussianBlur>
            <feColorMatrix values="0 0 0 0 0.620329721   0 0 0 0 0.705398114   0 0 0 0 0.910528274  0 0 0 0.5 0" type="matrix" in="shadowBlurOuter1" result="shadowMatrixOuter1"></feColorMatrix>
            <feMerge>
                <feMergeNode in="shadowMatrixOuter1"></feMergeNode>
                <feMergeNode in="SourceGraphic"></feMergeNode>
            </feMerge>
        </filter>
        <linearGradient x1="0%" y1="69.7900868%" x2="96.4017804%" y2="26.6335012%" id="linearGradient-2">
            <stop stop-color="#FFDFD0" offset="0%"></stop>
            <stop stop-color="#FFFFFF" offset="100%"></stop>
        </linearGradient>
        <polygon id="path-3" points="106.207138 59.989524 104.656792 177.629304 204.018066 230.820217 204.018066 105.001611"></polygon>
        <polygon id="path-4" points="53.660749 29.5783106 52.8793568 88.8542269 102.958582 115.655876 102.958582 52.2588418"></polygon>
        <polygon id="path-5" points="53.660749 29.5783106 52.8793568 88.8542269 102.958582 115.655876 102.958582 52.2588418"></polygon>
        <polygon id="path-6" points="53.660749 29.5783106 52.8793568 88.8542269 102.958582 115.655876 102.958582 52.2588418"></polygon>
    </defs>
    <g id="Logos" stroke="none" stroke-width="1" fill="none" fill-rule="evenodd">
        <g id="logo-black" transform="translate(17.000000, 10.000000)">
            <g id="PlatformKit-3D-Icon---Black">
                <g id="PlatformKit-3D-Icon">
                    <g filter="url(#filter-1)">
                        <g id="Box" transform="translate(17.366647, 26.832581)">
                            <path d="M108.411951,2.1571118 L201.581159,55.7682418 L201.581159,55.7682418 C204.682254,57.5526637 206.593733,60.8579018 206.593733,64.4357432 L206.593733,171.599975 L206.593733,171.599975 C206.593733,175.177817 204.682254,178.483055 201.581159,180.267477 L108.411951,233.878607 L108.411951,233.878607 C105.324338,235.655272 101.524713,235.655272 98.4370991,233.878607 L5.26789112,180.267477 L5.26789112,180.267477 C2.1667966,178.483055 0.25531727,175.177817 0.25531727,171.599975 L0.25531727,64.4357432 L0.25531727,64.4357432 C0.25531727,60.8579018 2.1667966,57.5526637 5.26789112,55.7682418 L98.4370991,2.1571118 L98.4370991,2.1571118 C101.524713,0.380446991 105.324338,0.380446991 108.411951,2.1571118 Z" id="Polygon" fill="#FFFFFF"></path>
                            <polygon id="Left-Face" fill="url(#linearGradient-2)" points="2.31104042 59.989524 0.688815541 177.629304 104.656792 230.820217 104.656792 105.001611"></polygon>
                            <g id="Right-Face" transform="translate(154.337429, 145.404871) scale(-1, 1) translate(-154.337429, -145.404871) ">
                                <use fill="url(#linearGradient-2)" xlink:href="#path-3"></use>
                                <use fill="#C6E1FF" style="mix-blend-mode: hue;" xlink:href="#path-3"></use>
                            </g>
                            <g id="Lines" transform="translate(3.226344, 59.451802)" stroke="#FFFFFF" stroke-width="3" stroke-linecap="square" opacity="0.5">
                                <path d="M0.701721932,0.527357531 L99.8654172,45.6317182" id="Line"></path>
                                <path d="M100.530945,45.6317182 L199.029113,0.527357531" id="Line"></path>
                                <path d="M100.574866,45.6317182 L100.574866,172.986934" id="Line"></path>
                            </g>
                            <path d="M113.399378,5.02696072 L196.568586,52.8839224 L196.568586,52.8839224 C202.770775,56.4527664 206.593733,63.0632424 206.593733,70.2189252 L206.593733,165.816793 L206.593733,165.816793 C206.593733,172.972476 202.770775,179.582952 196.568586,183.151796 L113.399378,231.008758 L113.399378,231.008758 C107.22415,234.562088 99.6249001,234.562088 93.449673,231.008758 L10.280465,183.151796 L10.280465,183.151796 C4.07827594,179.582952 0.25531727,172.972476 0.25531727,165.816793 L0.25531727,70.2189252 L0.25531727,70.2189252 C0.25531727,63.0632424 4.07827594,56.4527664 10.280465,52.8839224 L93.449673,5.02696072 L93.449673,5.02696072 C99.6249001,1.47363111 107.22415,1.47363111 113.399378,5.02696072 Z" id="Polygon" stroke="#000000" stroke-width="15"></path>
                        </g>
                        <g id="Small-Boxes">
                            <g id="Box" transform="translate(68.912599, 0.076110)">
                                <path d="M57.2447021,1.86037231 L99.2431704,26.0205224 L99.2431704,26.0205224 C102.34483,27.8047915 104.256748,31.1103461 104.256748,34.6886014 L104.256748,82.9462446 L104.256748,82.9462446 C104.256748,86.5244999 102.34483,89.8300546 99.2431704,91.6143237 L57.2447021,115.774474 L57.2447021,115.774474 C54.1575999,117.550368 50.3589601,117.550368 47.2718579,115.774474 L5.27338967,91.6143237 L5.27338967,91.6143237 C2.17172968,89.8300546 0.259811786,86.5244999 0.259811786,82.9462446 L0.259811786,34.6886014 L0.259811786,34.6886014 C0.259811786,31.1103461 2.17172968,27.8047915 5.27338967,26.0205224 L47.2718579,1.86037231 L47.2718579,1.86037231 C50.3589601,0.0844777171 54.1575999,0.0844777171 57.2447021,1.86037231 Z" id="Polygon" fill="#FFFFFF"></path>
                                <polygon id="Left-Face" fill="url(#linearGradient-2)" points="1.29591991 29.5783106 0.478299904 88.8542269 52.8793568 115.655876 52.8793568 52.2588418"></polygon>
                                <g id="Right-Face" transform="translate(77.918970, 72.617093) scale(-1, 1) translate(-77.918970, -72.617093) ">
                                    <use fill="url(#linearGradient-2)" xlink:href="#path-4"></use>
                                    <use fill="#C6E1FF" style="mix-blend-mode: hue;" xlink:href="#path-4"></use>
                                </g>
                                <g id="Lines" transform="translate(1.757243, 29.307365)" stroke="#FFFFFF" stroke-width="3" stroke-linecap="square" opacity="0.5">
                                    <path d="M0.35367593,0.265723048 L50.3333197,22.9927488" id="Line"></path>
                                    <path d="M50.6687535,22.9927488 L100.312963,0.265723048" id="Line"></path>
                                    <path d="M50.6908901,22.9927488 L50.6908901,87.1640449" id="Line"></path>
                                </g>
                                <path d="M62.2311243,4.7288747 L94.2295925,23.1363983 L94.2295925,23.1363983 C100.432912,26.7049366 104.256748,33.3160458 104.256748,40.4725564 L104.256748,77.1622897 L104.256748,77.1622897 C104.256748,84.3188003 100.432912,90.9299095 94.2295925,94.4984478 L62.2311243,112.905971 L62.2311243,112.905971 C56.0569198,116.457761 48.4596402,116.457761 42.2854358,112.905971 L10.2869676,94.4984478 L10.2869676,94.4984478 C4.08364758,90.9299095 0.259811786,84.3188003 0.259811786,77.1622897 L0.259811786,40.4725564 L0.259811786,40.4725564 C0.259811786,33.3160458 4.08364758,26.7049366 10.2869676,23.1363983 L42.2854358,4.7288747 L42.2854358,4.7288747 C48.4596402,1.17708552 56.0569198,1.17708552 62.2311243,4.7288747 Z" id="Polygon" stroke="#000000" stroke-width="15"></path>
                            </g>
                            <g id="Box" transform="translate(0.246069, 120.181489)">
                                <path d="M57.2447021,1.86037231 L99.2431704,26.0205224 L99.2431704,26.0205224 C102.34483,27.8047915 104.256748,31.1103461 104.256748,34.6886014 L104.256748,82.9462446 L104.256748,82.9462446 C104.256748,86.5244999 102.34483,89.8300546 99.2431704,91.6143237 L57.2447021,115.774474 L57.2447021,115.774474 C54.1575999,117.550368 50.3589601,117.550368 47.2718579,115.774474 L5.27338967,91.6143237 L5.27338967,91.6143237 C2.17172968,89.8300546 0.259811786,86.5244999 0.259811786,82.9462446 L0.259811786,34.6886014 L0.259811786,34.6886014 C0.259811786,31.1103461 2.17172968,27.8047915 5.27338967,26.0205224 L47.2718579,1.86037231 L47.2718579,1.86037231 C50.3589601,0.0844777171 54.1575999,0.0844777171 57.2447021,1.86037231 Z" id="Polygon" fill="#FFFFFF"></path>
                                <polygon id="Left-Face" fill="url(#linearGradient-2)" points="1.29591991 29.5783106 0.478299904 88.8542269 52.8793568 115.655876 52.8793568 52.2588418"></polygon>
                                <g id="Right-Face" transform="translate(77.918970, 72.617093) scale(-1, 1) translate(-77.918970, -72.617093) ">
                                    <use fill="url(#linearGradient-2)" xlink:href="#path-5"></use>
                                    <use fill="#C6E1FF" style="mix-blend-mode: hue;" xlink:href="#path-5"></use>
                                </g>
                                <g id="Lines" transform="translate(1.757243, 29.307365)" stroke="#FFFFFF" stroke-width="3" stroke-linecap="square" opacity="0.5">
                                    <path d="M0.35367593,0.265723048 L50.3333197,22.9927488" id="Line"></path>
                                    <path d="M50.6687535,22.9927488 L100.312963,0.265723048" id="Line"></path>
                                    <path d="M50.6908901,22.9927488 L50.6908901,87.1640449" id="Line"></path>
                                </g>
                                <path d="M62.2311243,4.7288747 L94.2295925,23.1363983 L94.2295925,23.1363983 C100.432912,26.7049366 104.256748,33.3160458 104.256748,40.4725564 L104.256748,77.1622897 L104.256748,77.1622897 C104.256748,84.3188003 100.432912,90.9299095 94.2295925,94.4984478 L62.2311243,112.905971 L62.2311243,112.905971 C56.0569198,116.457761 48.4596402,116.457761 42.2854358,112.905971 L10.2869676,94.4984478 L10.2869676,94.4984478 C4.08364758,90.9299095 0.259811786,84.3188003 0.259811786,77.1622897 L0.259811786,40.4725564 L0.259811786,40.4725564 C0.259811786,33.3160458 4.08364758,26.7049366 10.2869676,23.1363983 L42.2854358,4.7288747 L42.2854358,4.7288747 C48.4596402,1.17708552 56.0569198,1.17708552 62.2311243,4.7288747 Z" id="Polygon" stroke="#000000" stroke-width="15"></path>
                            </g>
                            <g id="Box" transform="translate(136.819716, 120.181489)">
                                <path d="M57.2447021,1.86037231 L99.2431704,26.0205224 L99.2431704,26.0205224 C102.34483,27.8047915 104.256748,31.1103461 104.256748,34.6886014 L104.256748,82.9462446 L104.256748,82.9462446 C104.256748,86.5244999 102.34483,89.8300546 99.2431704,91.6143237 L57.2447021,115.774474 L57.2447021,115.774474 C54.1575999,117.550368 50.3589601,117.550368 47.2718579,115.774474 L5.27338967,91.6143237 L5.27338967,91.6143237 C2.17172968,89.8300546 0.259811786,86.5244999 0.259811786,82.9462446 L0.259811786,34.6886014 L0.259811786,34.6886014 C0.259811786,31.1103461 2.17172968,27.8047915 5.27338967,26.0205224 L47.2718579,1.86037231 L47.2718579,1.86037231 C50.3589601,0.0844777171 54.1575999,0.0844777171 57.2447021,1.86037231 Z" id="Polygon" fill="#FFFFFF"></path>
                                <polygon id="Left-Face" fill="url(#linearGradient-2)" points="1.29591991 29.5783106 0.478299904 88.8542269 52.8793568 115.655876 52.8793568 52.2588418"></polygon>
                                <g id="Right-Face" transform="translate(77.918970, 72.617093) scale(-1, 1) translate(-77.918970, -72.617093) ">
                                    <use fill="url(#linearGradient-2)" xlink:href="#path-6"></use>
                                    <use fill="#C6E1FF" style="mix-blend-mode: hue;" xlink:href="#path-6"></use>
                                </g>
                                <g id="Lines" transform="translate(1.757243, 29.307365)" stroke="#FFFFFF" stroke-width="3" stroke-linecap="square" opacity="0.5">
                                    <path d="M0.35367593,0.265723048 L50.3333197,22.9927488" id="Line"></path>
                                    <path d="M50.6687535,22.9927488 L100.312963,0.265723048" id="Line"></path>
                                    <path d="M50.6908901,22.9927488 L50.6908901,87.1640449" id="Line"></path>
                                </g>
                                <path d="M62.2311243,4.7288747 L94.2295925,23.1363983 L94.2295925,23.1363983 C100.432912,26.7049366 104.256748,33.3160458 104.256748,40.4725564 L104.256748,77.1622897 L104.256748,77.1622897 C104.256748,84.3188003 100.432912,90.9299095 94.2295925,94.4984478 L62.2311243,112.905971 L62.2311243,112.905971 C56.0569198,116.457761 48.4596402,116.457761 42.2854358,112.905971 L10.2869676,94.4984478 L10.2869676,94.4984478 C4.08364758,90.9299095 0.259811786,84.3188003 0.259811786,77.1622897 L0.259811786,40.4725564 L0.259811786,40.4725564 C0.259811786,33.3160458 4.08364758,26.7049366 10.2869676,23.1363983 L42.2854358,4.7288747 L42.2854358,4.7288747 C48.4596402,1.17708552 56.0569198,1.17708552 62.2311243,4.7288747 Z" id="Polygon" stroke="#000000" stroke-width="15"></path>
                            </g>
                            <g id="Lines" transform="translate(11.552554, 153.860603)" stroke="#000000" stroke-width="15" stroke-linecap="square">
                                <path d="M0.288632795,0.216878638 L41.0767188,18.766291" id="Line"></path>
                                <path d="M41.3504643,18.766291 L81.8648048,0.216878638" id="Line"></path>
                                <path d="M41.3685299,18.766291 L41.3685299,71.1418129" id="Line"></path>
                            </g>
                            <g id="Lines" transform="translate(147.912485, 153.860603)" stroke="#000000" stroke-width="15" stroke-linecap="square">
                                <path d="M0.288632795,0.216878638 L41.0767188,18.766291" id="Line"></path>
                                <path d="M41.3504643,18.766291 L81.8648048,0.216878638" id="Line"></path>
                                <path d="M41.3685299,18.766291 L41.3685299,71.1418129" id="Line"></path>
                            </g>
                            <g id="Lines" transform="translate(79.355834, 33.725102)" stroke="#000000" stroke-width="15" stroke-linecap="square">
                                <path d="M0.288632795,0.216878638 L41.0767188,18.766291" id="Line"></path>
                                <path d="M41.3504643,18.766291 L81.8648048,0.216878638" id="Line"></path>
                                <path d="M41.3685299,18.766291 L41.3685299,71.1418129" id="Line"></path>
                            </g>
                        </g>
                    </g>
                </g>
            </g>
            <path d="M320.842,101.303 L338.531,101.303 L338.797,110.081 C343.40769,102.810297 350.899948,99.175 361.274,99.175 C367.214696,99.175 372.55681,100.637985 377.3005,103.564 C382.04419,106.490015 385.79032,110.679473 388.539,116.1325 C391.28768,121.585527 392.662,127.858631 392.662,134.952 C392.662,141.513366 391.309847,147.520473 388.6055,152.9735 C385.901153,158.426527 382.066358,162.815483 377.101,166.1405 C372.135642,169.465517 366.549698,171.128 360.343,171.128 C355.820977,171.128 351.742352,170.263509 348.107,168.5345 C344.471648,166.805491 341.545678,164.345016 339.329,161.153 L339.329,201.585 L320.842,201.585 L320.842,101.303 Z M356.22,154.636 C361.540027,154.636 365.862483,152.818352 369.1875,149.183 C372.512517,145.547648 374.175,140.892695 374.175,135.218 C374.175,129.454638 372.49035,124.755352 369.121,121.12 C365.75165,117.484648 361.451359,115.667 356.22,115.667 C350.988641,115.667 346.68835,117.484648 343.319,121.12 C339.94965,124.755352 338.265,129.454638 338.265,135.218 C338.265,140.892695 339.927483,145.547648 343.2525,149.183 C346.577517,152.818352 350.899973,154.636 356.22,154.636 Z M413.489,61.27 L431.976,61.27 L431.976,169 L413.489,169 L413.489,61.27 Z M484.191,171.128 C478.250304,171.128 472.90819,169.665015 468.1645,166.739 C463.42081,163.812985 459.67468,159.623527 456.926,154.1705 C454.17732,148.717473 452.803,142.444369 452.803,135.351 C452.803,128.789634 454.155153,122.782527 456.8595,117.3295 C459.563847,111.876473 463.398642,107.487517 468.364,104.1625 C473.329358,100.837483 478.915302,99.175 485.122,99.175 C489.73269,99.175 493.922148,100.128157 497.6905,102.0345 C501.458852,103.940843 504.451322,106.622983 506.668,110.081 L506.934,101.303 L524.623,101.303 L524.623,169 L506.934,169 L506.668,160.355 C504.362655,163.901684 501.303686,166.583824 497.491,168.4015 C493.678314,170.219176 489.245025,171.128 484.191,171.128 Z M489.245,154.636 C494.476359,154.636 498.77665,152.818352 502.146,149.183 C505.51535,145.547648 507.2,140.848362 507.2,135.085 C507.2,129.410305 505.537517,124.755352 502.2125,121.12 C498.887483,117.484648 494.565027,115.667 489.245,115.667 C483.924973,115.667 479.602517,117.484648 476.2775,121.12 C472.952483,124.755352 471.29,129.410305 471.29,135.085 C471.29,140.848362 472.97465,145.547648 476.344,149.183 C479.71335,152.818352 484.013641,154.636 489.245,154.636 Z M555.558,116.598 L542.391,116.598 L542.391,101.303 L555.558,101.303 L555.558,82.949 L574.045,82.949 L574.045,101.303 L590.138,101.303 L590.138,116.598 L574.045,116.598 L574.045,169 L555.558,169 L555.558,116.598 Z M616.684,116.598 L604.448,116.598 L604.448,101.303 L616.684,101.303 L616.684,92.924 C616.684,82.6386152 619.166642,74.6808615 624.132,69.0505 C629.097358,63.4201385 636.146288,60.605 645.279,60.605 C647.939013,60.605 650.709819,60.8709973 653.5915,61.403 C656.473181,61.9350027 658.889324,62.6443289 660.84,63.531 L658.845,78.693 C655.120981,77.3629933 651.530017,76.698 648.072,76.698 C643.638645,76.698 640.380177,78.1388189 638.2965,81.0205 C636.212823,83.9021811 635.171,88.4019694 635.171,94.52 L635.171,101.303 L653.392,101.303 L653.392,116.598 L635.171,116.598 L635.171,169 L616.684,169 L616.684,116.598 Z M702.947,171.128 C696.296967,171.128 690.201194,169.620682 684.6595,166.606 C679.117806,163.591318 674.706683,159.335361 671.426,153.838 C668.145317,148.340639 666.505,142.089702 666.505,135.085 C666.505,128.612301 668.034485,122.649527 671.0935,117.1965 C674.152515,111.743473 678.474972,107.376683 684.061,104.096 C689.647028,100.815317 695.942298,99.175 702.947,99.175 C709.597033,99.175 715.692806,100.660152 721.2345,103.6305 C726.776194,106.600848 731.187317,110.834639 734.468,116.332 C737.748683,121.829361 739.389,128.080298 739.389,135.085 C739.389,141.646366 737.859515,147.653473 734.8005,153.1065 C731.741485,158.559527 727.419028,162.926317 721.833,166.207 C716.246972,169.487683 709.951702,171.128 702.947,171.128 Z M702.947,154.636 C708.178359,154.636 712.47865,152.818352 715.848,149.183 C719.21735,145.547648 720.902,140.848362 720.902,135.085 C720.902,129.410305 719.239517,124.755352 715.9145,121.12 C712.589483,117.484648 708.267027,115.667 702.947,115.667 C697.626973,115.667 693.304517,117.484648 689.9795,121.12 C686.654483,124.755352 684.992,129.410305 684.992,135.085 C684.992,140.848362 686.67665,145.547648 690.046,149.183 C693.41535,152.818352 697.715641,154.636 702.947,154.636 Z M760.216,101.303 L778.038,101.303 L778.171,112.475 C780.033009,108.48498 782.537818,105.426011 785.6855,103.298 C788.833182,101.169989 792.490646,100.106 796.658,100.106 C799.495348,100.106 802.110988,100.593662 804.505,101.569 L802.909,118.992 C800.16032,117.927995 797.41168,117.396 794.663,117.396 C789.608975,117.396 785.685514,119.213648 782.8925,122.849 C780.099486,126.484352 778.703,131.582634 778.703,138.144 L778.703,169 L760.216,169 L760.216,101.303 Z M823.071,101.303 L840.893,101.303 L841.026,109.682 C843.065344,106.223983 845.836149,103.608342 849.3385,101.835 C852.840851,100.061658 856.941643,99.175 861.641,99.175 C871.483049,99.175 878.39898,103.209293 882.389,111.278 C884.251009,107.642648 887.154814,104.716678 891.1005,102.5 C895.046186,100.283322 899.368643,99.175 904.068,99.175 C912.136707,99.175 918.298979,101.613309 922.555,106.49 C926.811021,111.366691 928.939,118.504286 928.939,127.903 L928.939,169 L910.452,169 L910.452,131.361 C910.452,125.952306 909.476676,121.962346 907.526,119.391 C905.575324,116.819654 902.560687,115.534 898.482,115.534 C894.403313,115.534 891.189178,117.041318 888.8395,120.056 C886.489822,123.070682 885.315,127.237973 885.315,132.558 L885.315,169 L866.828,169 L866.828,131.361 C866.828,125.952306 865.874843,121.962346 863.9685,119.391 C862.062157,116.819654 859.025354,115.534 854.858,115.534 C850.690646,115.534 847.432178,117.041318 845.0825,120.056 C842.732822,123.070682 841.558,127.193641 841.558,132.425 L841.558,169 L823.071,169 L823.071,101.303 Z M953.224,61.27 L971.711,61.27 L971.711,126.573 L996.05,101.303 L1018.926,101.303 L988.469,131.627 L1023.847,169 L1000.04,169 L971.711,138.144 L971.711,169 L953.224,169 L953.224,61.27 Z M1039.221,101.303 L1057.708,101.303 L1057.708,169 L1039.221,169 L1039.221,101.303 Z M1048.398,87.471 C1045.20598,87.471 1042.56818,86.4291771 1040.4845,84.3455 C1038.40082,82.2618229 1037.359,79.7126817 1037.359,76.698 C1037.359,73.6833183 1038.40082,71.1563435 1040.4845,69.117 C1042.56818,67.0776565 1045.20598,66.058 1048.398,66.058 C1051.59002,66.058 1054.22782,67.0776565 1056.3115,69.117 C1058.39518,71.1563435 1059.437,73.6833183 1059.437,76.698 C1059.437,79.8013489 1058.39518,82.3726565 1056.3115,84.412 C1054.22782,86.4513435 1051.59002,87.471 1048.398,87.471 Z M1088.643,116.598 L1075.476,116.598 L1075.476,101.303 L1088.643,101.303 L1088.643,82.949 L1107.13,82.949 L1107.13,101.303 L1123.223,101.303 L1123.223,116.598 L1107.13,116.598 L1107.13,169 L1088.643,169 L1088.643,116.598 Z" id="platformkit" fill="#000000"></path>
        </g>
    </g>
</svg>