<?xml version="1.0" encoding="UTF-8"?>
<svg width="1140px" height="293px" viewBox="0 0 1140 293" version="1.1" xmlns="http://www.w3.org/2000/svg" xmlns:xlink="http://www.w3.org/1999/xlink">
    <!-- Generator: Sketch 44.1 (41455) - http://www.bohemiancoding.com/sketch -->
    <title>logo-black</title>
    <desc>Created with Sketch.</desc>
    <defs>
        <filter x="-10.5%" y="-7.4%" width="121.1%" height="118.6%" filterUnits="objectBoundingBox" id="filter-1">
            <feOffset dx="0" dy="5" in="SourceAlpha" result="shadowOffsetOuter1"></feOffset>
            <feGaussianBlur stdDeviation="5" in="shadowOffsetOuter1" result="shadowBlurOuter1"></feGaussianBlur>
            <feColorMatrix values="0 0 0 0 0.620329721   0 0 0 0 0.705398114   0 0 0 0 0.910528274  0 0 0 0.5 0" type="matrix" in="shadowBlurOuter1" result="shadowMatrixOuter1"></feColorMatrix>
            <feMerge>
                <feMergeNode in="shadowMatrixOuter1"></feMergeNode>
                <feMergeNode in="SourceGraphic"></feMergeNode>
            </feMerge>
        </filter>
        <linearGradient x1="0%" y1="69.7900868%" x2="96.4017804%" y2="26.6335012%" id="linearGradient-2">
            <stop stop-color="#FFDFD0" offset="0%"></stop>
            <stop stop-color="#FFFFFF" offset="100%"></stop>
        </linearGradient>
        <polygon id="path-3" points="106.207138 59.989524 104.656792 177.629304 204.018066 230.820217 204.018066 105.001611"></polygon>
        <polygon id="path-4" points="53.660749 29.5783106 52.8793568 88.8542269 102.958582 115.655876 102.958582 52.2588418"></polygon>
        <polygon id="path-5" points="53.660749 29.5783106 52.8793568 88.8542269 102.958582 115.655876 102.958582 52.2588418"></polygon>
        <polygon id="path-6" points="53.660749 29.5783106 52.8793568 88.8542269 102.958582 115.655876 102.958582 52.2588418"></polygon>
    </defs>
    <g id="Logos" stroke="none" stroke-width="1" fill="none" fill-rule="evenodd">
        <g id="logo-black" transform="translate(17.000000, 10.000000)">
            <g id="PlatformKit-3D-Icon---Black">
                <g id="PlatformKit-3D-Icon">
                    <g filter="url(#filter-1)">
                        <g id="Box" transform="translate(17.366647, 26.832581)">
                            <path d="M108.411951,2.1571118 L201.581159,55.7682418 L201.581159,55.7682418 C204.682254,57.5526637 206.593733,60.8579018 206.593733,64.4357432 L206.593733,171.599975 L206.593733,171.599975 C206.593733,175.177817 204.682254,178.483055 201.581159,180.267477 L108.411951,233.878607 L108.411951,233.878607 C105.324338,235.655272 101.524713,235.655272 98.4370991,233.878607 L5.26789112,180.267477 L5.26789112,180.267477 C2.1667966,178.483055 0.25531727,175.177817 0.25531727,171.599975 L0.25531727,64.4357432 L0.25531727,64.4357432 C0.25531727,60.8579018 2.1667966,57.5526637 5.26789112,55.7682418 L98.4370991,2.1571118 L98.4370991,2.1571118 C101.524713,0.380446991 105.324338,0.380446991 108.411951,2.1571118 Z" id="Polygon" fill="#FFFFFF"></path>
                            <polygon id="Left-Face" fill="url(#linearGradient-2)" points="2.31104042 59.989524 0.688815541 177.629304 104.656792 230.820217 104.656792 105.001611"></polygon>
                            <g id="Right-Face" transform="translate(154.337429, 145.404871) scale(-1, 1) translate(-154.337429, -145.404871) ">
                                <use fill="url(#linearGradient-2)" xlink:href="#path-3"></use>
                                <use fill="#C6E1FF" style="mix-blend-mode: hue;" xlink:href="#path-3"></use>
                            </g>
                            <g id="Lines" transform="translate(3.226344, 59.451802)" stroke="#FFFFFF" stroke-width="3" stroke-linecap="square" opacity="0.5">
                                <path d="M0.701721932,0.527357531 L99.8654172,45.6317182" id="Line"></path>
                                <path d="M100.530945,45.6317182 L199.029113,0.527357531" id="Line"></path>
                                <path d="M100.574866,45.6317182 L100.574866,172.986934" id="Line"></path>
                            </g>
                            <path d="M113.399378,5.02696072 L196.568586,52.8839224 L196.568586,52.8839224 C202.770775,56.4527664 206.593733,63.0632424 206.593733,70.2189252 L206.593733,165.816793 L206.593733,165.816793 C206.593733,172.972476 202.770775,179.582952 196.568586,183.151796 L113.399378,231.008758 L113.399378,231.008758 C107.22415,234.562088 99.6249001,234.562088 93.449673,231.008758 L10.280465,183.151796 L10.280465,183.151796 C4.07827594,179.582952 0.25531727,172.972476 0.25531727,165.816793 L0.25531727,70.2189252 L0.25531727,70.2189252 C0.25531727,63.0632424 4.07827594,56.4527664 10.280465,52.8839224 L93.449673,5.02696072 L93.449673,5.02696072 C99.6249001,1.47363111 107.22415,1.47363111 113.399378,5.02696072 Z" id="Polygon" stroke="#000000" stroke-width="15"></path>
                        </g>
                        <g id="Small-Boxes">
                            <g id="Box" transform="translate(68.912599, 0.076110)">
                                <path d="M57.2447021,1.86037231 L99.2431704,26.0205224 L99.2431704,26.0205224 C102.34483,27.8047915 104.256748,31.1103461 104.256748,34.6886014 L104.256748,82.9462446 L104.256748,82.9462446 C104.256748,86.5244999 102.34483,89.8300546 99.2431704,91.6143237 L57.2447021,115.774474 L57.2447021,115.774474 C54.1575999,117.550368 50.3589601,117.550368 47.2718579,115.774474 L5.27338967,91.6143237 L5.27338967,91.6143237 C2.17172968,89.8300546 0.259811786,86.5244999 0.259811786,82.9462446 L0.259811786,34.6886014 L0.259811786,34.6886014 C0.259811786,31.1103461 2.17172968,27.8047915 5.27338967,26.0205224 L47.2718579,1.86037231 L47.2718579,1.86037231 C50.3589601,0.0844777171 54.1575999,0.0844777171 57.2447021,1.86037231 Z" id="Polygon" fill="#FFFFFF"></path>
                                <polygon id="Left-Face" fill="url(#linearGradient-2)" points="1.29591991 29.5783106 0.478299904 88.8542269 52.8793568 115.655876 52.8793568 52.2588418"></polygon>
                                <g id="Right-Face" transform="translate(77.918970, 72.617093) scale(-1, 1) translate(-77.918970, -72.617093) ">
                                    <use fill="url(#linearGradient-2)" xlink:href="#path-4"></use>
                                    <use fill="#C6E1FF" style="mix-blend-mode: hue;" xlink:href="#path-4"></use>
                                </g>
                                <g id="Lines" transform="translate(1.757243, 29.307365)" stroke="#FFFFFF" stroke-width="3" stroke-linecap="square" opacity="0.5">
                                    <path d="M0.35367593,0.265723048 L50.3333197,22.9927488" id="Line"></path>
                                    <path d="M50.6687535,22.9927488 L100.312963,0.265723048" id="Line"></path>
                                    <path d="M50.6908901,22.9927488 L50.6908901,87.1640449" id="Line"></path>
                                </g>
                                <path d="M62.2311243,4.7288747 L94.2295925,23.1363983 L94.2295925,23.1363983 C100.432912,26.7049366 104.256748,33.3160458 104.256748,40.4725564 L104.256748,77.1622897 L104.256748,77.1622897 C104.256748,84.3188003 100.432912,90.9299095 94.2295925,94.4984478 L62.2311243,112.905971 L62.2311243,112.905971 C56.0569198,116.457761 48.4596402,116.457761 42.2854358,112.905971 L10.2869676,94.4984478 L10.2869676,94.4984478 C4.08364758,90.9299095 0.259811786,84.3188003 0.259811786,77.1622897 L0.259811786,40.4725564 L0.259811786,40.4725564 C0.259811786,33.3160458 4.08364758,26.7049366 10.2869676,23.1363983 L42.2854358,4.7288747 L42.2854358,4.7288747 C48.4596402,1.17708552 56.0569198,1.17708552 62.2311243,4.7288747 Z" id="Polygon" stroke="#000000" stroke-width="15"></path>
                            </g>
                            <g id="Box" transform="translate(0.246069, 120.181489)">
                                <path d="M57.2447021,1.86037231 L99.2431704,26.0205224 L99.2431704,26.0205224 C102.34483,27.8047915 104.256748,31.1103461 104.256748,34.6886014 L104.256748,82.9462446 L104.256748,82.9462446 C104.256748,86.5244999 102.34483,89.8300546 99.2431704,91.6143237 L57.2447021,115.774474 L57.2447021,115.774474 C54.1575999,117.550368 50.3589601,117.550368 47.2718579,115.774474 L5.27338967,91.6143237 L5.27338967,91.6143237 C2.17172968,89.8300546 0.259811786,86.5244999 0.259811786,82.9462446 L0.259811786,34.6886014 L0.259811786,34.6886014 C0.259811786,31.1103461 2.17172968,27.8047915 5.27338967,26.0205224 L47.2718579,1.86037231 L47.2718579,1.86037231 C50.3589601,0.0844777171 54.1575999,0.0844777171 57.2447021,1.86037231 Z" id="Polygon" fill="#FFFFFF"></path>
                                <polygon id="Left-Face" fill="url(#linearGradient-2)" points="1.29591991 29.5783106 0.478299904 88.8542269 52.8793568 115.655876 52.8793568 52.2588418"></polygon>
                                <g id="Right-Face" transform="translate(77.918970, 72.617093) scale(-1, 1) translate(-77.918970, -72.617093) ">
                                    <use fill="url(#linearGradient-2)" xlink:href="#path-5"></use>
                                    <use fill="#C6E1FF" style="mix-blend-mode: hue;" xlink:href="#path-5"></use>
                                </g>
                                <g id="Lines" transform="translate(1.757243, 29.307365)" stroke="#FFFFFF" stroke-width="3" stroke-linecap="square" opacity="0.5">
                                    <path d="M0.35367593,0.265723048 L50.3333197,22.9927488" id="Line"></path>
                                    <path d="M50.6687535,22.9927488 L100.312963,0.265723048" id="Line"></path>
                                    <path d="M50.6908901,22.9927488 L50.6908901,87.1640449" id="Line"></path>
                                </g>
                                <path d="M62.2311243,4.7288747 L94.2295925,23.1363983 L94.2295925,23.1363983 C100.432912,26.7049366 104.256748,33.3160458 104.256748,40.4725564 L104.256748,77.1622897 L104.256748,77.1622897 C104.256748,84.3188003 100.432912,90.9299095 94.2295925,94.4984478 L62.2311243,112.905971 L62.2311243,112.905971 C56.0569198,116.457761 48.4596402,116.457761 42.2854358,112.905971 L10.2869676,94.4984478 L10.2869676,94.4984478 C4.08364758,90.9299095 0.259811786,84.3188003 0.259811786,77.1622897 L0.259811786,40.4725564 L0.259811786,40.4725564 C0.259811786,33.3160458 4.08364758,26.7049366 10.2869676,23.1363983 L42.2854358,4.7288747 L42.2854358,4.7288747 C48.4596402,1.17708552 56.0569198,1.17708552 62.2311243,4.7288747 Z" id="Polygon" stroke="#000000" stroke-width="15"></path>
                            </g>
                            <g id="Box" transform="translate(136.819716, 120.181489)">
                                <path d="M57.2447021,1.86037231 L99.2431704,26.0205224 L99.2431704,26.0205224 C102.34483,27.8047915 104.256748,31.1103461 104.256748,34.6886014 L104.256748,82.9462446 L104.256748,82.9462446 C104.256748,86.5244999 102.34483,89.8300546 99.2431704,91.6143237 L57.2447021,115.774474 L57.2447021,115.774474 C54.1575999,117.550368 50.3589601,117.550368 47.2718579,115.774474 L5.27338967,91.6143237 L5.27338967,91.6143237 C2.17172968,89.8300546 0.259811786,86.5244999 0.259811786,82.9462446 L0.259811786,34.6886014 L0.259811786,34.6886014 C0.259811786,31.1103461 2.17172968,27.8047915 5.27338967,26.0205224 L47.2718579,1.86037231 L47.2718579,1.86037231 C50.3589601,0.0844777171 54.1575999,0.0844777171 57.2447021,1.86037231 Z" id="Polygon" fill="#FFFFFF"></path>
                                <polygon id="Left-Face" fill="url(#linearGradient-2)" points="1.29591991 29.5783106 0.478299904 88.8542269 52.8793568 115.655876 52.8793568 52.2588418"></polygon>
                                <g id="Right-Face" transform="translate(77.918970, 72.617093) scale(-1, 1) translate(-77.918970, -72.617093) ">
                                    <use fill="url(#linearGradient-2)" xlink:href="#path-6"></use>
                                    <use fill="#C6E1FF" style="mix-blend-mode: hue;" xlink:href="#path-6"></use>
                                </g>
                                <g id="Lines" transform="translate(1.757243, 29.307365)" stroke="#FFFFFF" stroke-width="3" stroke-linecap="square" opacity="0.5">
                                    <path d="M0.35367593,0.265723048 L50.3333197,22.9927488" id="Line"></path>
                                    <path d="M50.6687535,22.9927488 L100.312963,0.265723048" id="Line"></path>
                                    <path d="M50.6908901,22.9927488 L50.6908901,87.1640449" id="Line"></path>
                                </g>
                                <path d="M62.2311243,4.7288747 L94.2295925,23.1363983 L94.2295925,23.1363983 C100.432912,26.7049366 104.256748,33.3160458 104.256748,40.4725564 L104.256748,77.1622897 L104.256748,77.1622897 C104.256748,84.3188003 100.432912,90.9299095 94.2295925,94.4984478 L62.2311243,112.905971 L62.2311243,112.905971 C56.0569198,116.457761 48.4596402,116.457761 42.2854358,112.905971 L10.2869676,94.4984478 L10.2869676,94.4984478 C4.08364758,90.9299095 0.259811786,84.3188003 0.259811786,77.1622897 L0.259811786,40.4725564 L0.259811786,40.4725564 C0.259811786,33.3160458 4.08364758,26.7049366 10.2869676,23.1363983 L42.2854358,4.7288747 L42.2854358,4.7288747 C48.4596402,1.17708552 56.0569198,1.17708552 62.2311243,4.7288747 Z" id="Polygon" stroke="#000000" stroke-width="15"></path>
                            </g>
                            <g id="Lines" transform="translate(11.552554, 153.860603)" stroke="#000000" stroke-width="15" stroke-linecap="square">
                                <path d="M0.288632795,0.216878638 L41.0767188,18.766291" id="Line"></path>
                                <path d="M41.3504643,18.766291 L81.8648048,0.216878638" id="Line"></path>
                                <path d="M41.3685299,18.766291 L41.3685299,71.1418129" id="Line"></path>
                            </g>
                            <g id="Lines" transform="translate(147.912485, 153.860603)" stroke="#000000" stroke-width="15" stroke-linecap="square">
                                <path d="M0.288632795,0.216878638 L41.0767188,18.766291" id="Line"></path>
                                <path d="M41.3504643,18.766291 L81.8648048,0.216878638" id="Line"></path>
                                <path d="M41.3685299,18.766291 L41.3685299,71.1418129" id="Line"></path>
                            </g>
                            <g id="Lines" transform="translate(79.355834, 33.725102)" stroke="#000000" stroke-width="15" stroke-linecap="square">
                                <path d="M0.288632795,0.216878638 L41.0767188,18.766291" id="Line"></path>
                                <path d="M41.3504643,18.766291 L81.8648048,0.216878638" id="Line"></path>
                                <path d="M41.3685299,18.766291 L41.3685299,71.1418129" id="Line"></path>
                            </g>
                        </g>
                    </g>
                </g>
            </g>
            <text id="platformkit" font-family="ObjektivMk1-Bold, Objektiv Mk1" font-size="133" font-weight="bold" letter-spacing="5" fill="#000000">
                <tspan x="311" y="169">platform</tspan>
                <tspan x="943.382" y="169">ki</tspan>
                <tspan x="1072.55" y="169">t</tspan>
            </text>
        </g>
    </g>
</svg>