<?xml version="1.0" encoding="UTF-8"?>
<svg width="1140px" height="292px" viewBox="0 0 1140 292" version="1.1" xmlns="http://www.w3.org/2000/svg" xmlns:xlink="http://www.w3.org/1999/xlink">
    <!-- Generator: Sketch 44.1 (41455) - http://www.bohemiancoding.com/sketch -->
    <title>logo-color</title>
    <desc>Created with Sketch.</desc>
    <defs>
        <filter x="-6.5%" y="-4.4%" width="113.0%" height="112.2%" filterUnits="objectBoundingBox" id="filter-1">
            <feOffset dx="0" dy="5" in="SourceAlpha" result="shadowOffsetOuter1"></feOffset>
            <feGaussianBlur stdDeviation="5" in="shadowOffsetOuter1" result="shadowBlurOuter1"></feGaussianBlur>
            <feColorMatrix values="0 0 0 0 0.620329721   0 0 0 0 0.705398114   0 0 0 0 0.910528274  0 0 0 0.5 0" type="matrix" in="shadowBlurOuter1" result="shadowMatrixOuter1"></feColorMatrix>
            <feMerge>
                <feMergeNode in="shadowMatrixOuter1"></feMergeNode>
                <feMergeNode in="SourceGraphic"></feMergeNode>
            </feMerge>
        </filter>
        <linearGradient x1="0%" y1="69.7900868%" x2="96.4017804%" y2="26.6335012%" id="linearGradient-2">
            <stop stop-color="#FFDFD0" offset="0%"></stop>
            <stop stop-color="#FFFFFF" offset="100%"></stop>
        </linearGradient>
        <polygon id="path-3" points="120.688819 60.2950585 119.15403 177.145688 217.518258 229.979786 217.518258 105.005195"></polygon>
        <polygon id="path-4" points="61.0224366 30.2604413 60.2464197 88.9045773 109.981142 115.420567 109.981142 52.6992367"></polygon>
        <polygon id="path-5" points="61.0224366 30.2604413 60.2464197 88.9045773 109.981142 115.420567 109.981142 52.6992367"></polygon>
        <polygon id="path-6" points="61.0224366 30.2604413 60.2464197 88.9045773 109.981142 115.420567 109.981142 52.6992367"></polygon>
    </defs>
    <g id="Logos" stroke="none" stroke-width="1" fill="none" fill-rule="evenodd">
        <g id="logo-color" transform="translate(2.000000, 2.000000)">
            <g id="PlatformKit-3D-Icon">
                <g filter="url(#filter-1)">
                    <g id="Box" transform="translate(1.491713, 19.364583)">
                        <g transform="translate(15.565872, 15.565872)">
                            <path d="M122.934128,2.88675135 L215.06808,56.0803129 L215.06808,56.0803129 C218.16209,57.8666408 220.06808,61.167911 220.06808,64.7405669 L220.06808,171.12769 L220.06808,171.12769 C220.06808,174.700346 218.16209,178.001616 215.06808,179.787944 L122.934128,232.981505 L122.934128,232.981505 C119.840118,234.767833 116.028139,234.767833 112.934128,232.981505 L20.8001772,179.787944 L20.8001772,179.787944 C17.7061665,178.001616 15.8001772,174.700346 15.8001772,171.12769 L15.8001772,64.7405669 L15.8001772,64.7405669 C15.8001772,61.167911 17.7061665,57.8666408 20.8001772,56.0803129 L112.934128,2.88675135 L112.934128,2.88675135 C116.028139,1.1004234 119.840118,1.1004234 122.934128,2.88675135 Z" id="Polygon" fill="#FFFFFF"></path>
                            <polygon id="Left-Face" fill="url(#linearGradient-2)" points="17.8352721 60.2950585 16.2293255 177.145688 119.15403 229.979786 119.15403 105.005195"></polygon>
                            <g id="Right-Face" transform="translate(168.336144, 145.137422) scale(-1, 1) translate(-168.336144, -145.137422) ">
                                <use fill="url(#linearGradient-2)" xlink:href="#path-3"></use>
                                <use fill="#C6E1FF" style="mix-blend-mode: hue;" xlink:href="#path-3"></use>
                            </g>
                            <g id="Lines" transform="translate(18.741391, 59.760944)" stroke="#FFFFFF" stroke-width="3" stroke-linecap="square" opacity="0.5">
                                <path d="M0.694680467,0.523819914 L98.8633125,45.3256117" id="Line"></path>
                                <path d="M99.5221624,45.3256117 L197.031945,0.523819914" id="Line"></path>
                                <path d="M99.5656425,45.3256117 L99.5656425,171.826504" id="Line"></path>
                            </g>
                            <path d="M127.934128,5.77350269 L210.06808,53.1935615 L210.06808,53.1935615 C216.256101,56.7662174 220.06808,63.3687578 220.06808,70.5140696 L220.06808,165.354187 L220.06808,165.354187 C220.06808,172.499499 216.256101,179.102039 210.06808,182.674695 L127.934128,230.094754 L127.934128,230.094754 C121.746107,233.66741 114.12215,233.66741 107.934128,230.094754 L25.8001772,182.674695 L25.8001772,182.674695 C19.6121557,179.102039 15.8001772,172.499499 15.8001772,165.354187 L15.8001772,70.5140696 L15.8001772,70.5140696 C15.8001772,63.3687578 19.6121557,56.7662174 25.8001772,53.1935615 L107.934128,5.77350269 L107.934128,5.77350269 C114.12215,2.20084679 121.746107,2.20084679 127.934128,5.77350269 Z" id="Polygon" stroke="#F66F23" stroke-width="15"></path>
                        </g>
                    </g>
                    <g id="Small-Boxes">
                        <g id="Box" transform="translate(68.086207, 0.242930)">
                            <g transform="translate(7.870385, 7.812085)">
                                <path d="M64.6017605,2.84940505 L106.242522,26.7126264 L106.242522,26.7126264 C109.35222,28.4947122 111.270377,31.804764 111.270377,35.3889029 L111.270377,82.9869264 L111.270377,82.9869264 C111.270377,86.5710653 109.35222,89.8811171 106.242522,91.6632029 L64.6017605,115.526424 L64.6017605,115.526424 C61.5219385,117.291389 57.7372924,117.291389 54.6574705,115.526424 L13.0167086,91.6632029 L13.0167086,91.6632029 C9.90701064,89.8811171 7.98885366,86.5710653 7.98885366,82.9869264 L7.98885366,35.3889029 L7.98885366,35.3889029 C7.98885366,31.804764 9.90701064,28.4947122 13.0167086,26.7126264 L54.6574705,2.84940505 L54.6574705,2.84940505 C57.7372924,1.08444038 61.5219385,1.08444038 64.6017605,2.84940505 Z" id="Polygon" fill="#FFFFFF"></path>
                                <polygon id="Left-Face" fill="url(#linearGradient-2)" points="9.01783422 30.2604413 8.20583876 88.9045773 60.2464197 115.420567 60.2464197 52.6992367"></polygon>
                                <g id="Right-Face" transform="translate(85.113781, 72.840504) scale(-1, 1) translate(-85.113781, -72.840504) ">
                                    <use fill="url(#linearGradient-2)" xlink:href="#path-4"></use>
                                    <use fill="#C6E1FF" style="mix-blend-mode: hue;" xlink:href="#path-4"></use>
                                </g>
                                <g id="Lines" transform="translate(9.475984, 29.992384)" stroke="#FFFFFF" stroke-width="3" stroke-linecap="square" opacity="0.5">
                                    <path d="M0.351242933,0.262890893 L49.9870681,22.7476853" id="Line"></path>
                                    <path d="M50.3201945,22.7476853 L99.6228933,0.262890893" id="Line"></path>
                                    <path d="M50.3421788,22.7476853 L50.3421788,86.2350246" id="Line"></path>
                                </g>
                                <path d="M69.5739055,5.69881009 L101.214667,23.8312954 L101.214667,23.8312954 C107.434063,27.3954671 111.270377,34.0155706 111.270377,41.1838484 L111.270377,77.1919809 L111.270377,77.1919809 C111.270377,84.3602586 107.434063,90.9803622 101.214667,94.5445339 L69.5739055,112.677019 L69.5739055,112.677019 C63.4142616,116.206948 55.8449694,116.206948 49.6853255,112.677019 L18.0445636,94.5445339 L18.0445636,94.5445339 C11.8251676,90.9803622 7.98885366,84.3602586 7.98885366,77.1919809 L7.98885366,41.1838484 L7.98885366,41.1838484 C7.98885366,34.0155706 11.8251676,27.3954671 18.0445636,23.8312954 L49.6853255,5.69881009 L49.6853255,5.69881009 C55.8449694,2.16888077 63.4142616,2.16888077 69.5739055,5.69881009 Z" id="Polygon" stroke="#F66F23" stroke-width="15"></path>
                            </g>
                        </g>
                        <g id="Box" transform="translate(0.104494, 119.379717)">
                            <g transform="translate(7.870385, 7.812085)">
                                <path d="M64.6017605,2.84940505 L106.242522,26.7126264 L106.242522,26.7126264 C109.35222,28.4947122 111.270377,31.804764 111.270377,35.3889029 L111.270377,82.9869264 L111.270377,82.9869264 C111.270377,86.5710653 109.35222,89.8811171 106.242522,91.6632029 L64.6017605,115.526424 L64.6017605,115.526424 C61.5219385,117.291389 57.7372924,117.291389 54.6574705,115.526424 L13.0167086,91.6632029 L13.0167086,91.6632029 C9.90701064,89.8811171 7.98885366,86.5710653 7.98885366,82.9869264 L7.98885366,35.3889029 L7.98885366,35.3889029 C7.98885366,31.804764 9.90701064,28.4947122 13.0167086,26.7126264 L54.6574705,2.84940505 L54.6574705,2.84940505 C57.7372924,1.08444038 61.5219385,1.08444038 64.6017605,2.84940505 Z" id="Polygon" fill="#FFFFFF"></path>
                                <polygon id="Left-Face" fill="url(#linearGradient-2)" points="9.01783422 30.2604413 8.20583876 88.9045773 60.2464197 115.420567 60.2464197 52.6992367"></polygon>
                                <g id="Right-Face" transform="translate(85.113781, 72.840504) scale(-1, 1) translate(-85.113781, -72.840504) ">
                                    <use fill="url(#linearGradient-2)" xlink:href="#path-5"></use>
                                    <use fill="#C6E1FF" style="mix-blend-mode: hue;" xlink:href="#path-5"></use>
                                </g>
                                <g id="Lines" transform="translate(9.475984, 29.992384)" stroke="#FFFFFF" stroke-width="3" stroke-linecap="square" opacity="0.5">
                                    <path d="M0.351242933,0.262890893 L49.9870681,22.7476853" id="Line"></path>
                                    <path d="M50.3201945,22.7476853 L99.6228933,0.262890893" id="Line"></path>
                                    <path d="M50.3421788,22.7476853 L50.3421788,86.2350246" id="Line"></path>
                                </g>
                                <path d="M69.5739055,5.69881009 L101.214667,23.8312954 L101.214667,23.8312954 C107.434063,27.3954671 111.270377,34.0155706 111.270377,41.1838484 L111.270377,77.1919809 L111.270377,77.1919809 C111.270377,84.3602586 107.434063,90.9803622 101.214667,94.5445339 L69.5739055,112.677019 L69.5739055,112.677019 C63.4142616,116.206948 55.8449694,116.206948 49.6853255,112.677019 L18.0445636,94.5445339 L18.0445636,94.5445339 C11.8251676,90.9803622 7.98885366,84.3602586 7.98885366,77.1919809 L7.98885366,41.1838484 L7.98885366,41.1838484 C7.98885366,34.0155706 11.8251676,27.3954671 18.0445636,23.8312954 L49.6853255,5.69881009 L49.6853255,5.69881009 C55.8449694,2.16888077 63.4142616,2.16888077 69.5739055,5.69881009 Z" id="Polygon" stroke="#F66F23" stroke-width="15"></path>
                            </g>
                        </g>
                        <g id="Box" transform="translate(135.316079, 119.379717)">
                            <g transform="translate(7.870385, 7.812085)">
                                <path d="M64.6017605,2.84940505 L106.242522,26.7126264 L106.242522,26.7126264 C109.35222,28.4947122 111.270377,31.804764 111.270377,35.3889029 L111.270377,82.9869264 L111.270377,82.9869264 C111.270377,86.5710653 109.35222,89.8811171 106.242522,91.6632029 L64.6017605,115.526424 L64.6017605,115.526424 C61.5219385,117.291389 57.7372924,117.291389 54.6574705,115.526424 L13.0167086,91.6632029 L13.0167086,91.6632029 C9.90701064,89.8811171 7.98885366,86.5710653 7.98885366,82.9869264 L7.98885366,35.3889029 L7.98885366,35.3889029 C7.98885366,31.804764 9.90701064,28.4947122 13.0167086,26.7126264 L54.6574705,2.84940505 L54.6574705,2.84940505 C57.7372924,1.08444038 61.5219385,1.08444038 64.6017605,2.84940505 Z" id="Polygon" fill="#FFFFFF"></path>
                                <polygon id="Left-Face" fill="url(#linearGradient-2)" points="9.01783422 30.2604413 8.20583876 88.9045773 60.2464197 115.420567 60.2464197 52.6992367"></polygon>
                                <g id="Right-Face" transform="translate(85.113781, 72.840504) scale(-1, 1) translate(-85.113781, -72.840504) ">
                                    <use fill="url(#linearGradient-2)" xlink:href="#path-6"></use>
                                    <use fill="#C6E1FF" style="mix-blend-mode: hue;" xlink:href="#path-6"></use>
                                </g>
                                <g id="Lines" transform="translate(9.475984, 29.992384)" stroke="#FFFFFF" stroke-width="3" stroke-linecap="square" opacity="0.5">
                                    <path d="M0.351242933,0.262890893 L49.9870681,22.7476853" id="Line"></path>
                                    <path d="M50.3201945,22.7476853 L99.6228933,0.262890893" id="Line"></path>
                                    <path d="M50.3421788,22.7476853 L50.3421788,86.2350246" id="Line"></path>
                                </g>
                                <path d="M69.5739055,5.69881009 L101.214667,23.8312954 L101.214667,23.8312954 C107.434063,27.3954671 111.270377,34.0155706 111.270377,41.1838484 L111.270377,77.1919809 L111.270377,77.1919809 C111.270377,84.3602586 107.434063,90.9803622 101.214667,94.5445339 L69.5739055,112.677019 L69.5739055,112.677019 C63.4142616,116.206948 55.8449694,116.206948 49.6853255,112.677019 L18.0445636,94.5445339 L18.0445636,94.5445339 C11.8251676,90.9803622 7.98885366,84.3602586 7.98885366,77.1919809 L7.98885366,41.1838484 L7.98885366,41.1838484 C7.98885366,34.0155706 11.8251676,27.3954671 18.0445636,23.8312954 L49.6853255,5.69881009 L49.6853255,5.69881009 C55.8449694,2.16888077 63.4142616,2.16888077 69.5739055,5.69881009 Z" id="Polygon" stroke="#F66F23" stroke-width="15"></path>
                            </g>
                        </g>
                        <g id="Lines" transform="translate(26.850829, 161.619792)" stroke-linecap="square" stroke="#F56F23">
                            <g id="Line">
                                <path d="M0.284705592,0.215873901 L40.5178197,18.6793521" stroke-width="15"></path>
                                <path d="M40.7878406,18.6793521 L80.7509339,0.215873901" stroke-width="15"></path>
                                <path d="M40.8056604,18.6793521 L40.8056604,70.8122329" stroke-width="15"></path>
                            </g>
                        </g>
                        <g id="Lines" transform="translate(161.850829, 161.619792)" stroke-linecap="square" stroke="#F56F23">
                            <g id="Line">
                                <path d="M0.284705592,0.215873901 L40.5178197,18.6793521" stroke-width="15"></path>
                                <path d="M40.7878406,18.6793521 L80.7509339,0.215873901" stroke-width="15"></path>
                                <path d="M40.8056604,18.6793521 L40.8056604,70.8122329" stroke-width="15"></path>
                            </g>
                        </g>
                        <g id="Lines" transform="translate(93.977901, 42.453125)" stroke-linecap="square" stroke="#F56F23">
                            <g id="Line">
                                <path d="M0.284705592,0.215873901 L40.5178197,18.6793521" stroke-width="15"></path>
                                <path d="M40.7878406,18.6793521 L80.7509339,0.215873901" stroke-width="15"></path>
                                <path d="M40.8056604,18.6793521 L40.8056604,70.8122329" stroke-width="15"></path>
                            </g>
                        </g>
                    </g>
                </g>
            </g>
            <text id="platformkit" font-family="ObjektivMk1-Bold, Objektiv Mk1" font-size="133" font-weight="bold" letter-spacing="5" fill="#000000">
                <tspan x="326" y="178">platform</tspan>
                <tspan x="958.382" y="178">ki</tspan>
                <tspan x="1087.55" y="178">t</tspan>
            </text>
        </g>
    </g>
</svg>