<?xml version="1.0" encoding="UTF-8"?>
<svg width="621px" height="621px" viewBox="0 0 621 621" version="1.1" xmlns="http://www.w3.org/2000/svg" xmlns:xlink="http://www.w3.org/1999/xlink">
    <!-- Generator: Sketch 44.1 (41455) - http://www.bohemiancoding.com/sketch -->
    <title>icon-black</title>
    <desc>Created with Sketch.</desc>
    <defs>
        <filter x="-8.4%" y="-5.0%" width="116.8%" height="112.7%" filterUnits="objectBoundingBox" id="filter-1">
            <feOffset dx="0" dy="5" in="SourceAlpha" result="shadowOffsetOuter1"></feOffset>
            <feGaussianBlur stdDeviation="5" in="shadowOffsetOuter1" result="shadowBlurOuter1"></feGaussianBlur>
            <feColorMatrix values="0 0 0 0 0.620329721   0 0 0 0 0.705398114   0 0 0 0 0.910528274  0 0 0 0.5 0" type="matrix" in="shadowBlurOuter1" result="shadowMatrixOuter1"></feColorMatrix>
            <feMerge>
                <feMergeNode in="shadowMatrixOuter1"></feMergeNode>
                <feMergeNode in="SourceGraphic"></feMergeNode>
            </feMerge>
        </filter>
        <linearGradient x1="0%" y1="69.7900868%" x2="96.4017804%" y2="26.6335012%" id="linearGradient-2">
            <stop stop-color="#FFDFD0" offset="0%"></stop>
            <stop stop-color="#FFFFFF" offset="100%"></stop>
        </linearGradient>
        <polygon id="path-3" points="148.777768 84.1678112 146.606002 249.221343 285.793903 323.850419 285.793903 147.321652"></polygon>
        <polygon id="path-4" points="75.1693963 41.4996069 74.0748014 124.666197 144.227105 162.270032 144.227105 73.3213407"></polygon>
        <polygon id="path-5" points="75.1693963 41.4996069 74.0748014 124.666197 144.227105 162.270032 144.227105 73.3213407"></polygon>
        <polygon id="path-6" points="75.1693963 41.4996069 74.0748014 124.666197 144.227105 162.270032 144.227105 73.3213407"></polygon>
    </defs>
    <g id="Icons" stroke="none" stroke-width="1" fill="none" fill-rule="evenodd">
        <g id="icon-black">
            <rect id="Rectangle" fill="#FFFFFF" x="0" y="0" width="621" height="621" rx="45"></rect>
            <g id="PlatformKit-3D-Icon---Black" transform="translate(141.000000, 119.000000)">
                <g id="PlatformKit-3D-Icon">
                    <g filter="url(#filter-1)">
                        <g id="Box" transform="translate(24.327659, 37.647234)">
                            <path d="M149.873158,1.87780056 L284.395313,79.4065286 L284.395313,79.4065286 C287.493072,81.19185 289.401965,84.4952201 289.401965,88.0706196 L289.401965,243.097366 L289.401965,243.097366 C289.401965,246.672765 287.493072,249.976135 284.395313,251.761457 L149.873158,329.290185 L149.873158,329.290185 C146.78253,331.071397 142.97709,331.071397 139.886462,329.290185 L5.36430699,251.761457 L5.36430699,251.761457 C2.26654828,249.976135 0.357655183,246.672765 0.357655183,243.097366 L0.357655183,88.0706196 L0.357655183,88.0706196 C0.357655183,84.4952201 2.26654828,81.19185 5.36430699,79.4065286 L139.886462,1.87780056 L139.886462,1.87780056 C142.97709,0.096588642 146.78253,0.096588642 149.873158,1.87780056 Z" id="Polygon" fill="#FFFFFF"></path>
                            <polygon id="Left-Face" fill="url(#linearGradient-2)" points="3.23736654 84.1678112 0.964911027 249.221343 146.606002 323.850419 146.606002 147.321652"></polygon>
                            <g id="Right-Face" transform="translate(216.199952, 204.009115) scale(-1, 1) translate(-216.199952, -204.009115) ">
                                <use fill="url(#linearGradient-2)" xlink:href="#path-3"></use>
                                <use fill="#C6E1FF" style="mix-blend-mode: hue;" xlink:href="#path-3"></use>
                            </g>
                            <g id="Lines" transform="translate(4.519548, 83.413365)" stroke="#FFFFFF" stroke-width="3" stroke-linecap="square" opacity="0.5">
                                <path d="M0.982990641,0.739904673 L139.894118,64.0232092" id="Line"></path>
                                <path d="M140.826407,64.0232092 L278.805244,0.739904673" id="Line"></path>
                                <path d="M140.887932,64.0232092 L140.887932,242.707904" id="Line"></path>
                            </g>
                            <path d="M154.866507,4.75560113 L279.388662,76.5210608 L279.388662,76.5210608 C285.584179,80.0917037 289.401965,86.6984438 289.401965,93.8492429 L289.401965,237.318743 L289.401965,237.318743 C289.401965,244.469542 285.584179,251.076282 279.388662,254.646925 L154.866507,326.412384 L154.866507,326.412384 C148.68525,329.974808 141.07437,329.974808 134.893114,326.412384 L10.3709588,254.646925 L10.3709588,254.646925 C4.17544138,251.076282 0.357655183,244.469542 0.357655183,237.318743 L0.357655183,93.8492429 L0.357655183,93.8492429 C0.357655183,86.6984438 4.17544138,80.0917037 10.3709588,76.5210608 L134.893114,4.75560113 L134.893114,4.75560113 C141.07437,1.19317728 148.68525,1.19317728 154.866507,4.75560113 Z" id="Polygon" stroke="#000000" stroke-width="15"></path>
                        </g>
                        <g id="Small-Boxes">
                            <g id="Box" transform="translate(96.534592, 0.106786)">
                                <path d="M78.1971245,1.46200209 L141.037954,37.6691546 L141.037954,37.6691546 C144.136278,39.4543237 146.04561,42.7580107 146.04561,46.3338244 L146.04561,118.712785 L146.04561,118.712785 C146.04561,122.288598 144.136278,125.592285 141.037954,127.377455 L78.1971245,163.584607 L78.1971245,163.584607 C75.1070074,165.365047 71.302554,165.365047 68.2124369,163.584607 L5.37160746,127.377455 L5.37160746,127.377455 C2.2732829,125.592285 0.36395122,122.288598 0.36395122,118.712785 L0.36395122,46.3338244 L0.36395122,46.3338244 C0.36395122,42.7580107 2.2732829,39.4543237 5.37160746,37.6691546 L68.2124369,1.46200209 L68.2124369,1.46200209 C71.302554,-0.318438096 75.1070074,-0.318438096 78.1971245,1.46200209 Z" id="Polygon" fill="#FFFFFF"></path>
                                <polygon id="Left-Face" fill="url(#linearGradient-2)" points="1.81535889 41.4996069 0.670015155 124.666197 74.0748014 162.270032 74.0748014 73.3213407"></polygon>
                                <g id="Right-Face" transform="translate(109.150953, 101.884819) scale(-1, 1) translate(-109.150953, -101.884819) ">
                                    <use fill="url(#linearGradient-2)" xlink:href="#path-4"></use>
                                    <use fill="#C6E1FF" style="mix-blend-mode: hue;" xlink:href="#path-4"></use>
                                </g>
                                <g id="Lines" transform="translate(2.461593, 41.119459)" stroke="#FFFFFF" stroke-width="3" stroke-linecap="square" opacity="0.5">
                                    <path d="M0.495438596,0.372820551 L70.5082453,32.2597883" id="Line"></path>
                                    <path d="M70.9781299,32.2597883 L140.521052,0.372820551" id="Line"></path>
                                    <path d="M71.0091395,32.2597883 L71.0091395,122.294801" id="Line"></path>
                                </g>
                                <path d="M83.1894682,4.33845285 L136.030298,34.7838812 L136.030298,34.7838812 C142.226947,38.3542195 146.04561,44.9615934 146.04561,52.1132209 L146.04561,112.933388 L146.04561,112.933388 C146.04561,120.085016 142.226947,126.69239 136.030298,130.262728 L83.1894682,160.708156 L83.1894682,160.708156 C77.0092342,164.269037 69.4003272,164.269037 63.2200932,160.708156 L10.3792637,130.262728 L10.3792637,130.262728 C4.18261458,126.69239 0.36395122,120.085016 0.36395122,112.933388 L0.36395122,52.1132209 L0.36395122,52.1132209 C0.36395122,44.9615934 4.18261458,38.3542195 10.3792637,34.7838812 L63.2200932,4.33845285 L63.2200932,4.33845285 C69.4003272,0.777572478 77.0092342,0.777572478 83.1894682,4.33845285 Z" id="Polygon" stroke="#000000" stroke-width="15"></path>
                            </g>
                            <g id="Box" transform="translate(0.344700, 168.619656)">
                                <path d="M78.1971245,1.46200209 L141.037954,37.6691546 L141.037954,37.6691546 C144.136278,39.4543237 146.04561,42.7580107 146.04561,46.3338244 L146.04561,118.712785 L146.04561,118.712785 C146.04561,122.288598 144.136278,125.592285 141.037954,127.377455 L78.1971245,163.584607 L78.1971245,163.584607 C75.1070074,165.365047 71.302554,165.365047 68.2124369,163.584607 L5.37160746,127.377455 L5.37160746,127.377455 C2.2732829,125.592285 0.36395122,122.288598 0.36395122,118.712785 L0.36395122,46.3338244 L0.36395122,46.3338244 C0.36395122,42.7580107 2.2732829,39.4543237 5.37160746,37.6691546 L68.2124369,1.46200209 L68.2124369,1.46200209 C71.302554,-0.318438096 75.1070074,-0.318438096 78.1971245,1.46200209 Z" id="Polygon" fill="#FFFFFF"></path>
                                <polygon id="Left-Face" fill="url(#linearGradient-2)" points="1.81535889 41.4996069 0.670015155 124.666197 74.0748014 162.270032 74.0748014 73.3213407"></polygon>
                                <g id="Right-Face" transform="translate(109.150953, 101.884819) scale(-1, 1) translate(-109.150953, -101.884819) ">
                                    <use fill="url(#linearGradient-2)" xlink:href="#path-5"></use>
                                    <use fill="#C6E1FF" style="mix-blend-mode: hue;" xlink:href="#path-5"></use>
                                </g>
                                <g id="Lines" transform="translate(2.461593, 41.119459)" stroke="#FFFFFF" stroke-width="3" stroke-linecap="square" opacity="0.5">
                                    <path d="M0.495438596,0.372820551 L70.5082453,32.2597883" id="Line"></path>
                                    <path d="M70.9781299,32.2597883 L140.521052,0.372820551" id="Line"></path>
                                    <path d="M71.0091395,32.2597883 L71.0091395,122.294801" id="Line"></path>
                                </g>
                                <path d="M83.1894682,4.33845285 L136.030298,34.7838812 L136.030298,34.7838812 C142.226947,38.3542195 146.04561,44.9615934 146.04561,52.1132209 L146.04561,112.933388 L146.04561,112.933388 C146.04561,120.085016 142.226947,126.69239 136.030298,130.262728 L83.1894682,160.708156 L83.1894682,160.708156 C77.0092342,164.269037 69.4003272,164.269037 63.2200932,160.708156 L10.3792637,130.262728 L10.3792637,130.262728 C4.18261458,126.69239 0.36395122,120.085016 0.36395122,112.933388 L0.36395122,52.1132209 L0.36395122,52.1132209 C0.36395122,44.9615934 4.18261458,38.3542195 10.3792637,34.7838812 L63.2200932,4.33845285 L63.2200932,4.33845285 C69.4003272,0.777572478 77.0092342,0.777572478 83.1894682,4.33845285 Z" id="Polygon" stroke="#000000" stroke-width="15"></path>
                            </g>
                            <g id="Box" transform="translate(191.660677, 168.619656)">
                                <path d="M78.1971245,1.46200209 L141.037954,37.6691546 L141.037954,37.6691546 C144.136278,39.4543237 146.04561,42.7580107 146.04561,46.3338244 L146.04561,118.712785 L146.04561,118.712785 C146.04561,122.288598 144.136278,125.592285 141.037954,127.377455 L78.1971245,163.584607 L78.1971245,163.584607 C75.1070074,165.365047 71.302554,165.365047 68.2124369,163.584607 L5.37160746,127.377455 L5.37160746,127.377455 C2.2732829,125.592285 0.36395122,122.288598 0.36395122,118.712785 L0.36395122,46.3338244 L0.36395122,46.3338244 C0.36395122,42.7580107 2.2732829,39.4543237 5.37160746,37.6691546 L68.2124369,1.46200209 L68.2124369,1.46200209 C71.302554,-0.318438096 75.1070074,-0.318438096 78.1971245,1.46200209 Z" id="Polygon" fill="#FFFFFF"></path>
                                <polygon id="Left-Face" fill="url(#linearGradient-2)" points="1.81535889 41.4996069 0.670015155 124.666197 74.0748014 162.270032 74.0748014 73.3213407"></polygon>
                                <g id="Right-Face" transform="translate(109.150953, 101.884819) scale(-1, 1) translate(-109.150953, -101.884819) ">
                                    <use fill="url(#linearGradient-2)" xlink:href="#path-6"></use>
                                    <use fill="#C6E1FF" style="mix-blend-mode: hue;" xlink:href="#path-6"></use>
                                </g>
                                <g id="Lines" transform="translate(2.461593, 41.119459)" stroke="#FFFFFF" stroke-width="3" stroke-linecap="square" opacity="0.5">
                                    <path d="M0.495438596,0.372820551 L70.5082453,32.2597883" id="Line"></path>
                                    <path d="M70.9781299,32.2597883 L140.521052,0.372820551" id="Line"></path>
                                    <path d="M71.0091395,32.2597883 L71.0091395,122.294801" id="Line"></path>
                                </g>
                                <path d="M83.1894682,4.33845285 L136.030298,34.7838812 L136.030298,34.7838812 C142.226947,38.3542195 146.04561,44.9615934 146.04561,52.1132209 L146.04561,112.933388 L146.04561,112.933388 C146.04561,120.085016 142.226947,126.69239 136.030298,130.262728 L83.1894682,160.708156 L83.1894682,160.708156 C77.0092342,164.269037 69.4003272,164.269037 63.2200932,160.708156 L10.3792637,130.262728 L10.3792637,130.262728 C4.18261458,126.69239 0.36395122,120.085016 0.36395122,112.933388 L0.36395122,52.1132209 L0.36395122,52.1132209 C0.36395122,44.9615934 4.18261458,38.3542195 10.3792637,34.7838812 L63.2200932,4.33845285 L63.2200932,4.33845285 C69.4003272,0.777572478 77.0092342,0.777572478 83.1894682,4.33845285 Z" id="Polygon" stroke="#000000" stroke-width="15"></path>
                            </g>
                            <g id="Lines" transform="translate(16.183123, 215.872861)" stroke="#000000" stroke-width="15" stroke-linecap="square">
                                <path d="M0.404324452,0.304289801 L57.541354,26.3298912" id="Line"></path>
                                <path d="M57.924824,26.3298912 L114.678384,0.304289801" id="Line"></path>
                                <path d="M57.9501307,26.3298912 L57.9501307,99.814939" id="Line"></path>
                            </g>
                            <g id="Lines" transform="translate(207.199720, 215.872861)" stroke="#000000" stroke-width="15" stroke-linecap="square">
                                <path d="M0.404324452,0.304289801 L57.541354,26.3298912" id="Line"></path>
                                <path d="M57.924824,26.3298912 L114.678384,0.304289801" id="Line"></path>
                                <path d="M57.9501307,26.3298912 L57.9501307,99.814939" id="Line"></path>
                            </g>
                            <g id="Lines" transform="translate(111.163751, 47.317728)" stroke="#000000" stroke-width="15" stroke-linecap="square">
                                <path d="M0.404324452,0.304289801 L57.541354,26.3298912" id="Line"></path>
                                <path d="M57.924824,26.3298912 L114.678384,0.304289801" id="Line"></path>
                                <path d="M57.9501307,26.3298912 L57.9501307,99.814939" id="Line"></path>
                            </g>
                        </g>
                    </g>
                </g>
            </g>
        </g>
    </g>
</svg>