<?xml version="1.0" encoding="UTF-8"?>
<svg width="621px" height="621px" viewBox="0 0 621 621" version="1.1" xmlns="http://www.w3.org/2000/svg" xmlns:xlink="http://www.w3.org/1999/xlink">
    <!-- Generator: Sketch 44.1 (41455) - http://www.bohemiancoding.com/sketch -->
    <title>icon-color</title>
    <desc>Created with Sketch.</desc>
    <defs>
        <filter x="-4.8%" y="-3.3%" width="109.7%" height="109.1%" filterUnits="objectBoundingBox" id="filter-1">
            <feOffset dx="0" dy="5" in="SourceAlpha" result="shadowOffsetOuter1"></feOffset>
            <feGaussianBlur stdDeviation="5" in="shadowOffsetOuter1" result="shadowBlurOuter1"></feGaussianBlur>
            <feColorMatrix values="0 0 0 0 0.620329721   0 0 0 0 0.705398114   0 0 0 0 0.910528274  0 0 0 0.5 0" type="matrix" in="shadowBlurOuter1" result="shadowMatrixOuter1"></feColorMatrix>
            <feMerge>
                <feMergeNode in="shadowMatrixOuter1"></feMergeNode>
                <feMergeNode in="SourceGraphic"></feMergeNode>
            </feMerge>
        </filter>
        <linearGradient x1="0%" y1="69.7900868%" x2="96.4017804%" y2="26.6335012%" id="linearGradient-2">
            <stop stop-color="#FFDFD0" offset="0%"></stop>
            <stop stop-color="#FFFFFF" offset="100%"></stop>
        </linearGradient>
        <polygon id="path-3" points="161.822461 80.8450597 159.76458 237.521184 291.653695 308.36241 291.653695 140.793483"></polygon>
        <polygon id="path-4" points="81.3632488 40.648354 80.3285596 119.424059 146.641522 155.042552 146.641522 70.7900194"></polygon>
        <polygon id="path-5" points="81.3632488 40.648354 80.3285596 119.424059 146.641522 155.042552 146.641522 70.7900194"></polygon>
        <polygon id="path-6" points="81.3632488 40.648354 80.3285596 119.424059 146.641522 155.042552 146.641522 70.7900194"></polygon>
    </defs>
    <g id="Icons" stroke="none" stroke-width="1" fill="none" fill-rule="evenodd">
        <g id="icon-color">
            <rect id="Rectangle" fill="#FFFFFF" x="0" y="0" width="621" height="621" rx="45"></rect>
            <g id="PlatformKit-3D-Icon" transform="translate(130.000000, 119.000000)">
                <g filter="url(#filter-1)">
                    <g id="Box" transform="translate(2.000000, 26.000000)">
                        <g transform="translate(20.871094, 20.871094)">
                            <path d="M163.128906,2.88675135 L290.072556,76.1777018 L290.072556,76.1777018 C293.166567,77.9640297 295.072556,81.2652999 295.072556,84.8379558 L295.072556,231.419857 L295.072556,231.419857 C295.072556,234.992513 293.166567,238.293783 290.072556,240.080111 L163.128906,313.371061 L163.128906,313.371061 C160.034895,315.157389 156.222917,315.157389 153.128906,313.371061 L26.1852564,240.080111 L26.1852564,240.080111 C23.0912456,238.293783 21.1852564,234.992513 21.1852564,231.419857 L21.1852564,84.8379558 L21.1852564,84.8379558 C21.1852564,81.2652999 23.0912456,77.9640297 26.1852564,76.1777018 L153.128906,2.88675135 L153.128906,2.88675135 C156.222917,1.1004234 160.034895,1.1004234 163.128906,2.88675135 Z" id="Polygon" fill="#FFFFFF"></path>
                            <polygon id="Left-Face" fill="url(#linearGradient-2)" points="23.9139604 80.8450597 21.7606687 237.521184 159.76458 308.36241 159.76458 140.793483"></polygon>
                            <g id="Right-Face" transform="translate(225.709137, 194.603735) scale(-1, 1) translate(-225.709137, -194.603735) ">
                                <use fill="url(#linearGradient-2)" xlink:href="#path-3"></use>
                                <use fill="#C6E1FF" style="mix-blend-mode: hue;" xlink:href="#path-3"></use>
                            </g>
                            <g id="Lines" transform="translate(25.128906, 80.128906)" stroke="#FFFFFF" stroke-width="3" stroke-linecap="square" opacity="0.5">
                                <path d="M0.931444221,0.702350297 L132.558299,60.7736666" id="Line"></path>
                                <path d="M133.441701,60.7736666 L264.185154,0.702350297" id="Line"></path>
                                <path d="M133.5,60.7736666 L133.5,230.389096" id="Line"></path>
                            </g>
                            <path d="M168.128906,5.77350269 L285.072556,73.2909504 L285.072556,73.2909504 C291.260578,76.8636063 295.072556,83.4661467 295.072556,90.6114585 L295.072556,225.646354 L295.072556,225.646354 C295.072556,232.791666 291.260578,239.394206 285.072556,242.966862 L168.128906,310.48431 L168.128906,310.48431 C161.940885,314.056966 154.316928,314.056966 148.128906,310.48431 L31.1852564,242.966862 L31.1852564,242.966862 C24.9972348,239.394206 21.1852564,232.791666 21.1852564,225.646354 L21.1852564,90.6114585 L21.1852564,90.6114585 C21.1852564,83.4661467 24.9972348,76.8636063 31.1852564,73.2909504 L148.128906,5.77350269 L148.128906,5.77350269 C154.316928,2.20084679 161.940885,2.20084679 168.128906,5.77350269 Z" id="Polygon" stroke="#F66F23" stroke-width="15"></path>
                        </g>
                    </g>
                    <g id="Small-Boxes">
                        <g id="Box" transform="translate(91.285951, 0.326172)">
                            <g transform="translate(10.493846, 10.493846)">
                                <path d="M84.506154,2.88675135 L143.360503,36.8663256 L143.360503,36.8663256 C146.454514,38.6526536 148.360503,41.9539238 148.360503,45.5265797 L148.360503,113.485728 L148.360503,113.485728 C148.360503,117.058384 146.454514,120.359654 143.360503,122.145982 L84.506154,156.125557 L84.506154,156.125557 C81.4121432,157.911885 77.6001647,157.911885 74.506154,156.125557 L15.6518049,122.145982 L15.6518049,122.145982 C12.5577941,120.359654 10.6518049,117.058384 10.6518049,113.485728 L10.6518049,45.5265797 L10.6518049,45.5265797 C10.6518049,41.9539238 12.5577941,38.6526536 15.6518049,36.8663256 L74.506154,2.88675135 L74.506154,2.88675135 C77.6001647,1.1004234 81.4121432,1.1004234 84.506154,2.88675135 Z" id="Polygon" fill="#FFFFFF"></path>
                                <polygon id="Left-Face" fill="url(#linearGradient-2)" points="12.023779 40.648354 10.9411183 119.424059 80.3285596 155.042552 80.3285596 70.7900194"></polygon>
                                <g id="Right-Face" transform="translate(113.485041, 97.845453) scale(-1, 1) translate(-113.485041, -97.845453) ">
                                    <use fill="url(#linearGradient-2)" xlink:href="#path-4"></use>
                                    <use fill="#C6E1FF" style="mix-blend-mode: hue;" xlink:href="#path-4"></use>
                                </g>
                                <g id="Lines" transform="translate(12.634646, 40.288277)" stroke="#FFFFFF" stroke-width="3" stroke-linecap="square" opacity="0.5">
                                    <path d="M0.46832391,0.353137021 L66.6494242,30.5565922" id="Line"></path>
                                    <path d="M67.0935926,30.5565922 L132.830524,0.353137021" id="Line"></path>
                                    <path d="M67.122905,30.5565922 L67.122905,115.838093" id="Line"></path>
                                </g>
                                <path d="M89.506154,5.77350269 L138.360503,33.9795743 L138.360503,33.9795743 C144.548525,37.5522302 148.360503,44.1547706 148.360503,51.3000824 L148.360503,107.712226 L148.360503,107.712226 C148.360503,114.857537 144.548525,121.460078 138.360503,125.032734 L89.506154,153.238805 L89.506154,153.238805 C83.3181324,156.811461 75.6941755,156.811461 69.506154,153.238805 L20.6518049,125.032734 L20.6518049,125.032734 C14.4637833,121.460078 10.6518049,114.857537 10.6518049,107.712226 L10.6518049,51.3000824 L10.6518049,51.3000824 C10.6518049,44.1547706 14.4637833,37.5522302 20.6518049,33.9795743 L69.506154,5.77350269 L69.506154,5.77350269 C75.6941755,2.20084679 83.3181324,2.20084679 89.506154,5.77350269 Z" id="Polygon" stroke="#F66F23" stroke-width="15"></path>
                            </g>
                        </g>
                        <g id="Box" transform="translate(0.140099, 160.286054)">
                            <g transform="translate(10.493846, 10.493846)">
                                <path d="M84.506154,2.88675135 L143.360503,36.8663256 L143.360503,36.8663256 C146.454514,38.6526536 148.360503,41.9539238 148.360503,45.5265797 L148.360503,113.485728 L148.360503,113.485728 C148.360503,117.058384 146.454514,120.359654 143.360503,122.145982 L84.506154,156.125557 L84.506154,156.125557 C81.4121432,157.911885 77.6001647,157.911885 74.506154,156.125557 L15.6518049,122.145982 L15.6518049,122.145982 C12.5577941,120.359654 10.6518049,117.058384 10.6518049,113.485728 L10.6518049,45.5265797 L10.6518049,45.5265797 C10.6518049,41.9539238 12.5577941,38.6526536 15.6518049,36.8663256 L74.506154,2.88675135 L74.506154,2.88675135 C77.6001647,1.1004234 81.4121432,1.1004234 84.506154,2.88675135 Z" id="Polygon" fill="#FFFFFF"></path>
                                <polygon id="Left-Face" fill="url(#linearGradient-2)" points="12.023779 40.648354 10.9411183 119.424059 80.3285596 155.042552 80.3285596 70.7900194"></polygon>
                                <g id="Right-Face" transform="translate(113.485041, 97.845453) scale(-1, 1) translate(-113.485041, -97.845453) ">
                                    <use fill="url(#linearGradient-2)" xlink:href="#path-5"></use>
                                    <use fill="#C6E1FF" style="mix-blend-mode: hue;" xlink:href="#path-5"></use>
                                </g>
                                <g id="Lines" transform="translate(12.634646, 40.288277)" stroke="#FFFFFF" stroke-width="3" stroke-linecap="square" opacity="0.5">
                                    <path d="M0.46832391,0.353137021 L66.6494242,30.5565922" id="Line"></path>
                                    <path d="M67.0935926,30.5565922 L132.830524,0.353137021" id="Line"></path>
                                    <path d="M67.122905,30.5565922 L67.122905,115.838093" id="Line"></path>
                                </g>
                                <path d="M89.506154,5.77350269 L138.360503,33.9795743 L138.360503,33.9795743 C144.548525,37.5522302 148.360503,44.1547706 148.360503,51.3000824 L148.360503,107.712226 L148.360503,107.712226 C148.360503,114.857537 144.548525,121.460078 138.360503,125.032734 L89.506154,153.238805 L89.506154,153.238805 C83.3181324,156.811461 75.6941755,156.811461 69.506154,153.238805 L20.6518049,125.032734 L20.6518049,125.032734 C14.4637833,121.460078 10.6518049,114.857537 10.6518049,107.712226 L10.6518049,51.3000824 L10.6518049,51.3000824 C10.6518049,44.1547706 14.4637833,37.5522302 20.6518049,33.9795743 L69.506154,5.77350269 L69.506154,5.77350269 C75.6941755,2.20084679 83.3181324,2.20084679 89.506154,5.77350269 Z" id="Polygon" stroke="#F66F23" stroke-width="15"></path>
                            </g>
                        </g>
                        <g id="Box" transform="translate(181.423780, 160.286054)">
                            <g transform="translate(10.493846, 10.493846)">
                                <path d="M84.506154,2.88675135 L143.360503,36.8663256 L143.360503,36.8663256 C146.454514,38.6526536 148.360503,41.9539238 148.360503,45.5265797 L148.360503,113.485728 L148.360503,113.485728 C148.360503,117.058384 146.454514,120.359654 143.360503,122.145982 L84.506154,156.125557 L84.506154,156.125557 C81.4121432,157.911885 77.6001647,157.911885 74.506154,156.125557 L15.6518049,122.145982 L15.6518049,122.145982 C12.5577941,120.359654 10.6518049,117.058384 10.6518049,113.485728 L10.6518049,45.5265797 L10.6518049,45.5265797 C10.6518049,41.9539238 12.5577941,38.6526536 15.6518049,36.8663256 L74.506154,2.88675135 L74.506154,2.88675135 C77.6001647,1.1004234 81.4121432,1.1004234 84.506154,2.88675135 Z" id="Polygon" fill="#FFFFFF"></path>
                                <polygon id="Left-Face" fill="url(#linearGradient-2)" points="12.023779 40.648354 10.9411183 119.424059 80.3285596 155.042552 80.3285596 70.7900194"></polygon>
                                <g id="Right-Face" transform="translate(113.485041, 97.845453) scale(-1, 1) translate(-113.485041, -97.845453) ">
                                    <use fill="url(#linearGradient-2)" xlink:href="#path-6"></use>
                                    <use fill="#C6E1FF" style="mix-blend-mode: hue;" xlink:href="#path-6"></use>
                                </g>
                                <g id="Lines" transform="translate(12.634646, 40.288277)" stroke="#FFFFFF" stroke-width="3" stroke-linecap="square" opacity="0.5">
                                    <path d="M0.46832391,0.353137021 L66.6494242,30.5565922" id="Line"></path>
                                    <path d="M67.0935926,30.5565922 L132.830524,0.353137021" id="Line"></path>
                                    <path d="M67.122905,30.5565922 L67.122905,115.838093" id="Line"></path>
                                </g>
                                <path d="M89.506154,5.77350269 L138.360503,33.9795743 L138.360503,33.9795743 C144.548525,37.5522302 148.360503,44.1547706 148.360503,51.3000824 L148.360503,107.712226 L148.360503,107.712226 C148.360503,114.857537 144.548525,121.460078 138.360503,125.032734 L89.506154,153.238805 L89.506154,153.238805 C83.3181324,156.811461 75.6941755,156.811461 69.506154,153.238805 L20.6518049,125.032734 L20.6518049,125.032734 C14.4637833,121.460078 10.6518049,114.857537 10.6518049,107.712226 L10.6518049,51.3000824 L10.6518049,51.3000824 C10.6518049,44.1547706 14.4637833,37.5522302 20.6518049,33.9795743 L69.506154,5.77350269 L69.506154,5.77350269 C75.6941755,2.20084679 83.3181324,2.20084679 89.506154,5.77350269 Z" id="Polygon" stroke="#F66F23" stroke-width="15"></path>
                            </g>
                        </g>
                        <g id="Lines" transform="translate(36.000000, 217.000000)" stroke-linecap="square" stroke="#F56F23">
                            <g id="Line">
                                <path d="M0.38312234,0.28884536 L54.5239796,24.9934993" stroke-width="15"></path>
                                <path d="M54.8873411,24.9934993 L108.664837,0.28884536" stroke-width="15"></path>
                                <path d="M54.9113208,24.9934993 L54.9113208,94.7487623" stroke-width="15"></path>
                            </g>
                        </g>
                        <g id="Lines" transform="translate(217.000000, 217.000000)" stroke-linecap="square" stroke="#F56F23">
                            <g id="Line">
                                <path d="M0.38312234,0.28884536 L54.5239796,24.9934993" stroke-width="15"></path>
                                <path d="M54.8873411,24.9934993 L108.664837,0.28884536" stroke-width="15"></path>
                                <path d="M54.9113208,24.9934993 L54.9113208,94.7487623" stroke-width="15"></path>
                            </g>
                        </g>
                        <g id="Lines" transform="translate(126.000000, 57.000000)" stroke-linecap="square" stroke="#F56F23">
                            <g id="Line">
                                <path d="M0.38312234,0.28884536 L54.5239796,24.9934993" stroke-width="15"></path>
                                <path d="M54.8873411,24.9934993 L108.664837,0.28884536" stroke-width="15"></path>
                                <path d="M54.9113208,24.9934993 L54.9113208,94.7487623" stroke-width="15"></path>
                            </g>
                        </g>
                    </g>
                </g>
            </g>
        </g>
    </g>
</svg>