<?xml version="1.0" encoding="UTF-8"?>
<svg width="1141px" height="292px" viewBox="0 0 1141 292" version="1.1" xmlns="http://www.w3.org/2000/svg" xmlns:xlink="http://www.w3.org/1999/xlink">
    <!-- Generator: Sketch 44.1 (41455) - http://www.bohemiancoding.com/sketch -->
    <title>logo-color</title>
    <desc>Created with Sketch.</desc>
    <defs>
        <filter x="-6.5%" y="-4.4%" width="113.0%" height="112.2%" filterUnits="objectBoundingBox" id="filter-1">
            <feOffset dx="0" dy="5" in="SourceAlpha" result="shadowOffsetOuter1"></feOffset>
            <feGaussianBlur stdDeviation="5" in="shadowOffsetOuter1" result="shadowBlurOuter1"></feGaussianBlur>
            <feColorMatrix values="0 0 0 0 0.620329721   0 0 0 0 0.705398114   0 0 0 0 0.910528274  0 0 0 0.5 0" type="matrix" in="shadowBlurOuter1" result="shadowMatrixOuter1"></feColorMatrix>
            <feMerge>
                <feMergeNode in="shadowMatrixOuter1"></feMergeNode>
                <feMergeNode in="SourceGraphic"></feMergeNode>
            </feMerge>
        </filter>
        <linearGradient x1="0%" y1="69.7900868%" x2="96.4017804%" y2="26.6335012%" id="linearGradient-2">
            <stop stop-color="#FFDFD0" offset="0%"></stop>
            <stop stop-color="#FFFFFF" offset="100%"></stop>
        </linearGradient>
        <polygon id="path-3" points="120.688819 60.2950585 119.15403 177.145688 217.518258 229.979786 217.518258 105.005195"></polygon>
        <polygon id="path-4" points="61.0224366 30.2604413 60.2464197 88.9045773 109.981142 115.420567 109.981142 52.6992367"></polygon>
        <polygon id="path-5" points="61.0224366 30.2604413 60.2464197 88.9045773 109.981142 115.420567 109.981142 52.6992367"></polygon>
        <polygon id="path-6" points="61.0224366 30.2604413 60.2464197 88.9045773 109.981142 115.420567 109.981142 52.6992367"></polygon>
    </defs>
    <g id="Logos" stroke="none" stroke-width="1" fill="none" fill-rule="evenodd">
        <g id="logo-color" transform="translate(2.000000, 2.000000)">
            <g id="PlatformKit-3D-Icon">
                <g filter="url(#filter-1)">
                    <g id="Box" transform="translate(1.491713, 19.364583)">
                        <g transform="translate(15.565872, 15.565872)">
                            <path d="M122.934128,2.88675135 L215.06808,56.0803129 L215.06808,56.0803129 C218.16209,57.8666408 220.06808,61.167911 220.06808,64.7405669 L220.06808,171.12769 L220.06808,171.12769 C220.06808,174.700346 218.16209,178.001616 215.06808,179.787944 L122.934128,232.981505 L122.934128,232.981505 C119.840118,234.767833 116.028139,234.767833 112.934128,232.981505 L20.8001772,179.787944 L20.8001772,179.787944 C17.7061665,178.001616 15.8001772,174.700346 15.8001772,171.12769 L15.8001772,64.7405669 L15.8001772,64.7405669 C15.8001772,61.167911 17.7061665,57.8666408 20.8001772,56.0803129 L112.934128,2.88675135 L112.934128,2.88675135 C116.028139,1.1004234 119.840118,1.1004234 122.934128,2.88675135 Z" id="Polygon" fill="#FFFFFF"></path>
                            <polygon id="Left-Face" fill="url(#linearGradient-2)" points="17.8352721 60.2950585 16.2293255 177.145688 119.15403 229.979786 119.15403 105.005195"></polygon>
                            <g id="Right-Face" transform="translate(168.336144, 145.137422) scale(-1, 1) translate(-168.336144, -145.137422) ">
                                <use fill="url(#linearGradient-2)" xlink:href="#path-3"></use>
                                <use fill="#C6E1FF" style="mix-blend-mode: hue;" xlink:href="#path-3"></use>
                            </g>
                            <g id="Lines" transform="translate(18.741391, 59.760944)" stroke="#FFFFFF" stroke-width="3" stroke-linecap="square" opacity="0.5">
                                <path d="M0.694680467,0.523819914 L98.8633125,45.3256117" id="Line"></path>
                                <path d="M99.5221624,45.3256117 L197.031945,0.523819914" id="Line"></path>
                                <path d="M99.5656425,45.3256117 L99.5656425,171.826504" id="Line"></path>
                            </g>
                            <path d="M127.934128,5.77350269 L210.06808,53.1935615 L210.06808,53.1935615 C216.256101,56.7662174 220.06808,63.3687578 220.06808,70.5140696 L220.06808,165.354187 L220.06808,165.354187 C220.06808,172.499499 216.256101,179.102039 210.06808,182.674695 L127.934128,230.094754 L127.934128,230.094754 C121.746107,233.66741 114.12215,233.66741 107.934128,230.094754 L25.8001772,182.674695 L25.8001772,182.674695 C19.6121557,179.102039 15.8001772,172.499499 15.8001772,165.354187 L15.8001772,70.5140696 L15.8001772,70.5140696 C15.8001772,63.3687578 19.6121557,56.7662174 25.8001772,53.1935615 L107.934128,5.77350269 L107.934128,5.77350269 C114.12215,2.20084679 121.746107,2.20084679 127.934128,5.77350269 Z" id="Polygon" stroke="#F66F23" stroke-width="15"></path>
                        </g>
                    </g>
                    <g id="Small-Boxes">
                        <g id="Box" transform="translate(68.086207, 0.242930)">
                            <g transform="translate(7.870385, 7.812085)">
                                <path d="M64.6017605,2.84940505 L106.242522,26.7126264 L106.242522,26.7126264 C109.35222,28.4947122 111.270377,31.804764 111.270377,35.3889029 L111.270377,82.9869264 L111.270377,82.9869264 C111.270377,86.5710653 109.35222,89.8811171 106.242522,91.6632029 L64.6017605,115.526424 L64.6017605,115.526424 C61.5219385,117.291389 57.7372924,117.291389 54.6574705,115.526424 L13.0167086,91.6632029 L13.0167086,91.6632029 C9.90701064,89.8811171 7.98885366,86.5710653 7.98885366,82.9869264 L7.98885366,35.3889029 L7.98885366,35.3889029 C7.98885366,31.804764 9.90701064,28.4947122 13.0167086,26.7126264 L54.6574705,2.84940505 L54.6574705,2.84940505 C57.7372924,1.08444038 61.5219385,1.08444038 64.6017605,2.84940505 Z" id="Polygon" fill="#FFFFFF"></path>
                                <polygon id="Left-Face" fill="url(#linearGradient-2)" points="9.01783422 30.2604413 8.20583876 88.9045773 60.2464197 115.420567 60.2464197 52.6992367"></polygon>
                                <g id="Right-Face" transform="translate(85.113781, 72.840504) scale(-1, 1) translate(-85.113781, -72.840504) ">
                                    <use fill="url(#linearGradient-2)" xlink:href="#path-4"></use>
                                    <use fill="#C6E1FF" style="mix-blend-mode: hue;" xlink:href="#path-4"></use>
                                </g>
                                <g id="Lines" transform="translate(9.475984, 29.992384)" stroke="#FFFFFF" stroke-width="3" stroke-linecap="square" opacity="0.5">
                                    <path d="M0.351242933,0.262890893 L49.9870681,22.7476853" id="Line"></path>
                                    <path d="M50.3201945,22.7476853 L99.6228933,0.262890893" id="Line"></path>
                                    <path d="M50.3421788,22.7476853 L50.3421788,86.2350246" id="Line"></path>
                                </g>
                                <path d="M69.5739055,5.69881009 L101.214667,23.8312954 L101.214667,23.8312954 C107.434063,27.3954671 111.270377,34.0155706 111.270377,41.1838484 L111.270377,77.1919809 L111.270377,77.1919809 C111.270377,84.3602586 107.434063,90.9803622 101.214667,94.5445339 L69.5739055,112.677019 L69.5739055,112.677019 C63.4142616,116.206948 55.8449694,116.206948 49.6853255,112.677019 L18.0445636,94.5445339 L18.0445636,94.5445339 C11.8251676,90.9803622 7.98885366,84.3602586 7.98885366,77.1919809 L7.98885366,41.1838484 L7.98885366,41.1838484 C7.98885366,34.0155706 11.8251676,27.3954671 18.0445636,23.8312954 L49.6853255,5.69881009 L49.6853255,5.69881009 C55.8449694,2.16888077 63.4142616,2.16888077 69.5739055,5.69881009 Z" id="Polygon" stroke="#F66F23" stroke-width="15"></path>
                            </g>
                        </g>
                        <g id="Box" transform="translate(0.104494, 119.379717)">
                            <g transform="translate(7.870385, 7.812085)">
                                <path d="M64.6017605,2.84940505 L106.242522,26.7126264 L106.242522,26.7126264 C109.35222,28.4947122 111.270377,31.804764 111.270377,35.3889029 L111.270377,82.9869264 L111.270377,82.9869264 C111.270377,86.5710653 109.35222,89.8811171 106.242522,91.6632029 L64.6017605,115.526424 L64.6017605,115.526424 C61.5219385,117.291389 57.7372924,117.291389 54.6574705,115.526424 L13.0167086,91.6632029 L13.0167086,91.6632029 C9.90701064,89.8811171 7.98885366,86.5710653 7.98885366,82.9869264 L7.98885366,35.3889029 L7.98885366,35.3889029 C7.98885366,31.804764 9.90701064,28.4947122 13.0167086,26.7126264 L54.6574705,2.84940505 L54.6574705,2.84940505 C57.7372924,1.08444038 61.5219385,1.08444038 64.6017605,2.84940505 Z" id="Polygon" fill="#FFFFFF"></path>
                                <polygon id="Left-Face" fill="url(#linearGradient-2)" points="9.01783422 30.2604413 8.20583876 88.9045773 60.2464197 115.420567 60.2464197 52.6992367"></polygon>
                                <g id="Right-Face" transform="translate(85.113781, 72.840504) scale(-1, 1) translate(-85.113781, -72.840504) ">
                                    <use fill="url(#linearGradient-2)" xlink:href="#path-5"></use>
                                    <use fill="#C6E1FF" style="mix-blend-mode: hue;" xlink:href="#path-5"></use>
                                </g>
                                <g id="Lines" transform="translate(9.475984, 29.992384)" stroke="#FFFFFF" stroke-width="3" stroke-linecap="square" opacity="0.5">
                                    <path d="M0.351242933,0.262890893 L49.9870681,22.7476853" id="Line"></path>
                                    <path d="M50.3201945,22.7476853 L99.6228933,0.262890893" id="Line"></path>
                                    <path d="M50.3421788,22.7476853 L50.3421788,86.2350246" id="Line"></path>
                                </g>
                                <path d="M69.5739055,5.69881009 L101.214667,23.8312954 L101.214667,23.8312954 C107.434063,27.3954671 111.270377,34.0155706 111.270377,41.1838484 L111.270377,77.1919809 L111.270377,77.1919809 C111.270377,84.3602586 107.434063,90.9803622 101.214667,94.5445339 L69.5739055,112.677019 L69.5739055,112.677019 C63.4142616,116.206948 55.8449694,116.206948 49.6853255,112.677019 L18.0445636,94.5445339 L18.0445636,94.5445339 C11.8251676,90.9803622 7.98885366,84.3602586 7.98885366,77.1919809 L7.98885366,41.1838484 L7.98885366,41.1838484 C7.98885366,34.0155706 11.8251676,27.3954671 18.0445636,23.8312954 L49.6853255,5.69881009 L49.6853255,5.69881009 C55.8449694,2.16888077 63.4142616,2.16888077 69.5739055,5.69881009 Z" id="Polygon" stroke="#F66F23" stroke-width="15"></path>
                            </g>
                        </g>
                        <g id="Box" transform="translate(135.316079, 119.379717)">
                            <g transform="translate(7.870385, 7.812085)">
                                <path d="M64.6017605,2.84940505 L106.242522,26.7126264 L106.242522,26.7126264 C109.35222,28.4947122 111.270377,31.804764 111.270377,35.3889029 L111.270377,82.9869264 L111.270377,82.9869264 C111.270377,86.5710653 109.35222,89.8811171 106.242522,91.6632029 L64.6017605,115.526424 L64.6017605,115.526424 C61.5219385,117.291389 57.7372924,117.291389 54.6574705,115.526424 L13.0167086,91.6632029 L13.0167086,91.6632029 C9.90701064,89.8811171 7.98885366,86.5710653 7.98885366,82.9869264 L7.98885366,35.3889029 L7.98885366,35.3889029 C7.98885366,31.804764 9.90701064,28.4947122 13.0167086,26.7126264 L54.6574705,2.84940505 L54.6574705,2.84940505 C57.7372924,1.08444038 61.5219385,1.08444038 64.6017605,2.84940505 Z" id="Polygon" fill="#FFFFFF"></path>
                                <polygon id="Left-Face" fill="url(#linearGradient-2)" points="9.01783422 30.2604413 8.20583876 88.9045773 60.2464197 115.420567 60.2464197 52.6992367"></polygon>
                                <g id="Right-Face" transform="translate(85.113781, 72.840504) scale(-1, 1) translate(-85.113781, -72.840504) ">
                                    <use fill="url(#linearGradient-2)" xlink:href="#path-6"></use>
                                    <use fill="#C6E1FF" style="mix-blend-mode: hue;" xlink:href="#path-6"></use>
                                </g>
                                <g id="Lines" transform="translate(9.475984, 29.992384)" stroke="#FFFFFF" stroke-width="3" stroke-linecap="square" opacity="0.5">
                                    <path d="M0.351242933,0.262890893 L49.9870681,22.7476853" id="Line"></path>
                                    <path d="M50.3201945,22.7476853 L99.6228933,0.262890893" id="Line"></path>
                                    <path d="M50.3421788,22.7476853 L50.3421788,86.2350246" id="Line"></path>
                                </g>
                                <path d="M69.5739055,5.69881009 L101.214667,23.8312954 L101.214667,23.8312954 C107.434063,27.3954671 111.270377,34.0155706 111.270377,41.1838484 L111.270377,77.1919809 L111.270377,77.1919809 C111.270377,84.3602586 107.434063,90.9803622 101.214667,94.5445339 L69.5739055,112.677019 L69.5739055,112.677019 C63.4142616,116.206948 55.8449694,116.206948 49.6853255,112.677019 L18.0445636,94.5445339 L18.0445636,94.5445339 C11.8251676,90.9803622 7.98885366,84.3602586 7.98885366,77.1919809 L7.98885366,41.1838484 L7.98885366,41.1838484 C7.98885366,34.0155706 11.8251676,27.3954671 18.0445636,23.8312954 L49.6853255,5.69881009 L49.6853255,5.69881009 C55.8449694,2.16888077 63.4142616,2.16888077 69.5739055,5.69881009 Z" id="Polygon" stroke="#F66F23" stroke-width="15"></path>
                            </g>
                        </g>
                        <g id="Lines" transform="translate(26.850829, 161.619792)" stroke-linecap="square" stroke="#F56F23">
                            <g id="Line">
                                <path d="M0.284705592,0.215873901 L40.5178197,18.6793521" stroke-width="15"></path>
                                <path d="M40.7878406,18.6793521 L80.7509339,0.215873901" stroke-width="15"></path>
                                <path d="M40.8056604,18.6793521 L40.8056604,70.8122329" stroke-width="15"></path>
                            </g>
                        </g>
                        <g id="Lines" transform="translate(161.850829, 161.619792)" stroke-linecap="square" stroke="#F56F23">
                            <g id="Line">
                                <path d="M0.284705592,0.215873901 L40.5178197,18.6793521" stroke-width="15"></path>
                                <path d="M40.7878406,18.6793521 L80.7509339,0.215873901" stroke-width="15"></path>
                                <path d="M40.8056604,18.6793521 L40.8056604,70.8122329" stroke-width="15"></path>
                            </g>
                        </g>
                        <g id="Lines" transform="translate(93.977901, 42.453125)" stroke-linecap="square" stroke="#F56F23">
                            <g id="Line">
                                <path d="M0.284705592,0.215873901 L40.5178197,18.6793521" stroke-width="15"></path>
                                <path d="M40.7878406,18.6793521 L80.7509339,0.215873901" stroke-width="15"></path>
                                <path d="M40.8056604,18.6793521 L40.8056604,70.8122329" stroke-width="15"></path>
                            </g>
                        </g>
                    </g>
                </g>
            </g>
            <path d="M335.842,110.303 L353.531,110.303 L353.797,119.081 C358.40769,111.810297 365.899948,108.175 376.274,108.175 C382.214696,108.175 387.55681,109.637985 392.3005,112.564 C397.04419,115.490015 400.79032,119.679473 403.539,125.1325 C406.28768,130.585527 407.662,136.858631 407.662,143.952 C407.662,150.513366 406.309847,156.520473 403.6055,161.9735 C400.901153,167.426527 397.066358,171.815483 392.101,175.1405 C387.135642,178.465517 381.549698,180.128 375.343,180.128 C370.820977,180.128 366.742352,179.263509 363.107,177.5345 C359.471648,175.805491 356.545678,173.345016 354.329,170.153 L354.329,210.585 L335.842,210.585 L335.842,110.303 Z M371.22,163.636 C376.540027,163.636 380.862483,161.818352 384.1875,158.183 C387.512517,154.547648 389.175,149.892695 389.175,144.218 C389.175,138.454638 387.49035,133.755352 384.121,130.12 C380.75165,126.484648 376.451359,124.667 371.22,124.667 C365.988641,124.667 361.68835,126.484648 358.319,130.12 C354.94965,133.755352 353.265,138.454638 353.265,144.218 C353.265,149.892695 354.927483,154.547648 358.2525,158.183 C361.577517,161.818352 365.899973,163.636 371.22,163.636 Z M428.489,70.27 L446.976,70.27 L446.976,178 L428.489,178 L428.489,70.27 Z M499.191,180.128 C493.250304,180.128 487.90819,178.665015 483.1645,175.739 C478.42081,172.812985 474.67468,168.623527 471.926,163.1705 C469.17732,157.717473 467.803,151.444369 467.803,144.351 C467.803,137.789634 469.155153,131.782527 471.8595,126.3295 C474.563847,120.876473 478.398642,116.487517 483.364,113.1625 C488.329358,109.837483 493.915302,108.175 500.122,108.175 C504.73269,108.175 508.922148,109.128157 512.6905,111.0345 C516.458852,112.940843 519.451322,115.622983 521.668,119.081 L521.934,110.303 L539.623,110.303 L539.623,178 L521.934,178 L521.668,169.355 C519.362655,172.901684 516.303686,175.583824 512.491,177.4015 C508.678314,179.219176 504.245025,180.128 499.191,180.128 Z M504.245,163.636 C509.476359,163.636 513.77665,161.818352 517.146,158.183 C520.51535,154.547648 522.2,149.848362 522.2,144.085 C522.2,138.410305 520.537517,133.755352 517.2125,130.12 C513.887483,126.484648 509.565027,124.667 504.245,124.667 C498.924973,124.667 494.602517,126.484648 491.2775,130.12 C487.952483,133.755352 486.29,138.410305 486.29,144.085 C486.29,149.848362 487.97465,154.547648 491.344,158.183 C494.71335,161.818352 499.013641,163.636 504.245,163.636 Z M570.558,125.598 L557.391,125.598 L557.391,110.303 L570.558,110.303 L570.558,91.949 L589.045,91.949 L589.045,110.303 L605.138,110.303 L605.138,125.598 L589.045,125.598 L589.045,178 L570.558,178 L570.558,125.598 Z M631.684,125.598 L619.448,125.598 L619.448,110.303 L631.684,110.303 L631.684,101.924 C631.684,91.6386152 634.166642,83.6808615 639.132,78.0505 C644.097358,72.4201385 651.146288,69.605 660.279,69.605 C662.939013,69.605 665.709819,69.8709973 668.5915,70.403 C671.473181,70.9350027 673.889324,71.6443289 675.84,72.531 L673.845,87.693 C670.120981,86.3629933 666.530017,85.698 663.072,85.698 C658.638645,85.698 655.380177,87.1388189 653.2965,90.0205 C651.212823,92.9021811 650.171,97.4019694 650.171,103.52 L650.171,110.303 L668.392,110.303 L668.392,125.598 L650.171,125.598 L650.171,178 L631.684,178 L631.684,125.598 Z M717.947,180.128 C711.296967,180.128 705.201194,178.620682 699.6595,175.606 C694.117806,172.591318 689.706683,168.335361 686.426,162.838 C683.145317,157.340639 681.505,151.089702 681.505,144.085 C681.505,137.612301 683.034485,131.649527 686.0935,126.1965 C689.152515,120.743473 693.474972,116.376683 699.061,113.096 C704.647028,109.815317 710.942298,108.175 717.947,108.175 C724.597033,108.175 730.692806,109.660152 736.2345,112.6305 C741.776194,115.600848 746.187317,119.834639 749.468,125.332 C752.748683,130.829361 754.389,137.080298 754.389,144.085 C754.389,150.646366 752.859515,156.653473 749.8005,162.1065 C746.741485,167.559527 742.419028,171.926317 736.833,175.207 C731.246972,178.487683 724.951702,180.128 717.947,180.128 Z M717.947,163.636 C723.178359,163.636 727.47865,161.818352 730.848,158.183 C734.21735,154.547648 735.902,149.848362 735.902,144.085 C735.902,138.410305 734.239517,133.755352 730.9145,130.12 C727.589483,126.484648 723.267027,124.667 717.947,124.667 C712.626973,124.667 708.304517,126.484648 704.9795,130.12 C701.654483,133.755352 699.992,138.410305 699.992,144.085 C699.992,149.848362 701.67665,154.547648 705.046,158.183 C708.41535,161.818352 712.715641,163.636 717.947,163.636 Z M775.216,110.303 L793.038,110.303 L793.171,121.475 C795.033009,117.48498 797.537818,114.426011 800.6855,112.298 C803.833182,110.169989 807.490646,109.106 811.658,109.106 C814.495348,109.106 817.110988,109.593662 819.505,110.569 L817.909,127.992 C815.16032,126.927995 812.41168,126.396 809.663,126.396 C804.608975,126.396 800.685514,128.213648 797.8925,131.849 C795.099486,135.484352 793.703,140.582634 793.703,147.144 L793.703,178 L775.216,178 L775.216,110.303 Z M838.071,110.303 L855.893,110.303 L856.026,118.682 C858.065344,115.223983 860.836149,112.608342 864.3385,110.835 C867.840851,109.061658 871.941643,108.175 876.641,108.175 C886.483049,108.175 893.39898,112.209293 897.389,120.278 C899.251009,116.642648 902.154814,113.716678 906.1005,111.5 C910.046186,109.283322 914.368643,108.175 919.068,108.175 C927.136707,108.175 933.298979,110.613309 937.555,115.49 C941.811021,120.366691 943.939,127.504286 943.939,136.903 L943.939,178 L925.452,178 L925.452,140.361 C925.452,134.952306 924.476676,130.962346 922.526,128.391 C920.575324,125.819654 917.560687,124.534 913.482,124.534 C909.403313,124.534 906.189178,126.041318 903.8395,129.056 C901.489822,132.070682 900.315,136.237973 900.315,141.558 L900.315,178 L881.828,178 L881.828,140.361 C881.828,134.952306 880.874843,130.962346 878.9685,128.391 C877.062157,125.819654 874.025354,124.534 869.858,124.534 C865.690646,124.534 862.432178,126.041318 860.0825,129.056 C857.732822,132.070682 856.558,136.193641 856.558,141.425 L856.558,178 L838.071,178 L838.071,110.303 Z M968.224,70.27 L986.711,70.27 L986.711,135.573 L1011.05,110.303 L1033.926,110.303 L1003.469,140.627 L1038.847,178 L1015.04,178 L986.711,147.144 L986.711,178 L968.224,178 L968.224,70.27 Z M1054.221,110.303 L1072.708,110.303 L1072.708,178 L1054.221,178 L1054.221,110.303 Z M1063.398,96.471 C1060.20598,96.471 1057.56818,95.4291771 1055.4845,93.3455 C1053.40082,91.2618229 1052.359,88.7126817 1052.359,85.698 C1052.359,82.6833183 1053.40082,80.1563435 1055.4845,78.117 C1057.56818,76.0776565 1060.20598,75.058 1063.398,75.058 C1066.59002,75.058 1069.22782,76.0776565 1071.3115,78.117 C1073.39518,80.1563435 1074.437,82.6833183 1074.437,85.698 C1074.437,88.8013489 1073.39518,91.3726565 1071.3115,93.412 C1069.22782,95.4513435 1066.59002,96.471 1063.398,96.471 Z M1103.643,125.598 L1090.476,125.598 L1090.476,110.303 L1103.643,110.303 L1103.643,91.949 L1122.13,91.949 L1122.13,110.303 L1138.223,110.303 L1138.223,125.598 L1122.13,125.598 L1122.13,178 L1103.643,178 L1103.643,125.598 Z" id="platformkit" fill="#000000"></path>
        </g>
    </g>
</svg>